<?xml version="1.0" standalone="no"?>
<!DOCTYPE svg PUBLIC "-//W3C//DTD SVG 20010904//EN"
 "http://www.w3.org/TR/2001/REC-SVG-20010904/DTD/svg10.dtd">
<svg version="1.0" xmlns="http://www.w3.org/2000/svg"
 width="1587.000000pt" height="2245.000000pt" viewBox="0 0 1587.000000 2245.000000"
 preserveAspectRatio="xMidYMid meet">

<g transform="translate(0.000000,2245.000000) scale(0.100000,-0.100000)"
fill="#000000" stroke="none">
<path d="M4761 14814 c0 -11 3 -14 6 -6 3 7 2 16 -1 19 -3 4 -6 -2 -5 -13z"/>
<path d="M1993 8165 c0 -22 2 -30 4 -17 2 12 2 30 0 40 -3 9 -5 -1 -4 -23z"/>
<path d="M4790 8186 c0 -8 5 -18 10 -21 6 -3 10 3 10 14 0 12 -4 21 -10 21 -5
0 -10 -6 -10 -14z"/>
<path d="M10312 8175 c0 -16 2 -22 5 -12 2 9 2 23 0 30 -3 6 -5 -1 -5 -18z"/>
<path d="M12820 8195 c1 -6 7 -21 16 -35 l15 -25 -7 25 c-7 26 -24 52 -24 35z"/>
<path d="M5271 8174 c0 -11 3 -14 6 -6 3 7 2 16 -1 19 -3 4 -6 -2 -5 -13z"/>
<path d="M8041 7816 c-8 -9 -11 -19 -7 -23 9 -9 29 13 24 27 -2 8 -8 7 -17 -4z"/>
<path d="M12476 7766 c-20 -49 -20 -56 2 -30 10 11 23 23 30 25 10 3 9 9 -2
24 -13 18 -15 18 -30 -19z"/>
<path d="M2450 7483 l1 -48 19 35 c13 25 15 39 8 48 -19 23 -28 12 -28 -35z"/>
<path d="M8030 7364 c0 -25 27 -51 39 -38 5 5 -2 20 -15 34 -23 24 -24 24 -24
4z"/>
<path d="M8165 7331 c3 -3 17 -6 31 -7 13 0 22 2 19 5 -3 3 -17 6 -31 7 -13 0
-22 -2 -19 -5z"/>
<path d="M8813 7334 c3 -3 22 -6 42 -6 20 0 39 3 42 6 4 3 -15 6 -42 6 -27 0
-46 -3 -42 -6z"/>
<path d="M2455 6575 c0 -286 1 -402 2 -257 2 145 2 379 0 520 -1 141 -2 23 -2
-263z"/>
<path d="M12136 6913 c-8 -19 7 -38 22 -29 11 7 4 46 -8 46 -4 0 -11 -8 -14
-17z"/>
<path d="M12841 6912 c-10 -18 -9 -23 4 -28 23 -9 30 2 18 28 l-10 23 -12 -23z"/>
<path d="M3520 6854 c1 -10 59 -82 60 -73 0 3 -13 23 -30 44 -16 21 -30 34
-30 29z"/>
<path d="M3632 6745 c-13 -28 -6 -55 14 -55 10 0 14 12 14 40 0 45 -11 52 -28
15z"/>
<path d="M5272 6745 c0 -16 2 -22 5 -12 2 9 2 23 0 30 -3 6 -5 -1 -5 -18z"/>
<path d="M13436 6707 c3 -10 9 -15 12 -12 3 3 0 11 -7 18 -10 9 -11 8 -5 -6z"/>
<path d="M5291 6644 c0 -11 3 -14 6 -6 3 7 2 16 -1 19 -3 4 -6 -2 -5 -13z"/>
<path d="M5350 6521 c0 -6 4 -13 10 -16 6 -3 7 1 4 9 -7 18 -14 21 -14 7z"/>
<path d="M11965 6470 c-10 -11 -14 -20 -9 -20 12 1 44 25 44 34 0 12 -17 6
-35 -14z"/>
<path d="M12040 6480 c19 -12 981 -10 974 1 -3 5 -227 9 -497 9 -312 0 -487
-4 -477 -10z"/>
<path d="M8035 6410 c3 -5 11 -10 16 -10 6 0 7 5 4 10 -3 6 -11 10 -16 10 -6
0 -7 -4 -4 -10z"/>
<path d="M11296 6095 c-9 -26 -7 -32 5 -12 6 10 9 21 6 23 -2 3 -7 -2 -11 -11z"/>
</g>
</svg>
