<?xml version="1.0" standalone="no"?>
<!DOCTYPE svg PUBLIC "-//W3C//DTD SVG 20010904//EN"
 "http://www.w3.org/TR/2001/REC-SVG-20010904/DTD/svg10.dtd">
<svg version="1.0" xmlns="http://www.w3.org/2000/svg"
 width="1024.000000pt" height="1536.000000pt" viewBox="0 0 1024.000000 1536.000000"
 preserveAspectRatio="xMidYMid meet">

<g transform="translate(0.000000,1536.000000) scale(0.100000,-0.100000)"
fill="#000000" stroke="none">
<path d="M4784 11649 c-3 -5 6 -9 20 -9 31 0 34 6 6 13 -11 3 -23 1 -26 -4z"/>
<path d="M5630 11553 c14 -3 29 -10 33 -17 6 -7 7 -6 4 4 -2 8 -16 16 -33 17
-25 1 -26 0 -4 -4z"/>
<path d="M5685 11532 c3 -9 3 -13 -1 -10 -13 13 -46 -13 -39 -30 5 -14 4 -15
-6 -4 -7 6 -18 12 -23 12 -6 0 -5 -4 3 -9 28 -18 -4 -39 -50 -34 -29 4 -45 0
-59 -12 -11 -10 -28 -15 -40 -12 -11 3 -18 1 -14 -4 3 -5 14 -9 25 -9 19 0
102 -23 144 -40 11 -4 43 -16 70 -25 384 -134 735 -419 926 -752 123 -215 219
-537 219 -734 0 -31 5 -69 10 -86 l11 -30 227 1 c238 1 265 -2 424 -55 139
-46 323 -139 417 -211 45 -34 9 -18 -58 26 -160 106 -344 180 -551 221 -65 13
-262 17 -342 6 -96 -13 -135 -4 -142 33 -3 12 -9 75 -15 141 -54 588 -382
1061 -926 1333 -139 69 -314 126 -488 159 -118 22 -477 25 -582 4 -425 -82
-721 -233 -976 -498 -296 -309 -432 -608 -458 -1008 -12 -184 -8 -179 -136
-168 -200 18 -363 2 -533 -53 -97 -31 -213 -80 -275 -116 -26 -15 -50 -28 -52
-28 -8 0 -99 -64 -159 -112 -291 -234 -486 -539 -561 -877 -66 -298 -37 -718
65 -957 11 -26 19 -49 16 -51 -7 -8 -66 155 -86 240 -32 131 -43 280 -37 480
6 199 19 284 65 429 95 298 297 583 555 781 37 29 63 53 57 55 -6 2 -26 -10
-45 -26 -18 -17 -43 -33 -54 -37 -12 -3 -21 -9 -21 -13 0 -4 -4 -13 -9 -21 -8
-12 -12 -12 -24 -3 -12 10 -15 9 -13 -5 0 -11 -5 -17 -16 -17 -11 1 -18 -5
-18 -15 0 -14 -2 -14 -10 -1 -7 12 -10 12 -10 1 0 -7 -6 -11 -14 -8 -8 3 -20
-2 -28 -11 -12 -16 -11 -16 7 -2 20 15 20 14 1 -8 -20 -23 -32 -30 -21 -12 11
17 -7 11 -20 -7 -11 -15 -15 -16 -31 -3 -10 8 -15 10 -11 4 4 -7 0 -15 -9 -18
-8 -3 -13 -2 -10 3 3 5 -2 12 -11 15 -10 4 -14 4 -11 0 4 -3 0 -13 -8 -21 -8
-8 -12 -19 -9 -24 4 -5 1 -9 -5 -9 -7 0 -10 6 -7 14 3 7 1 18 -5 24 -8 8 -7
16 3 28 9 12 10 15 2 10 -31 -18 -9 20 42 73 30 32 55 62 55 67 0 9 -105 -99
-175 -181 -172 -201 -309 -490 -366 -772 -27 -136 -37 -449 -20 -604 48 -416
234 -787 528 -1055 54 -49 104 -95 112 -102 22 -21 173 -117 223 -142 27 -13
64 -38 84 -57 20 -18 45 -33 55 -33 11 0 19 -5 19 -11 0 -6 9 -9 20 -6 11 3
18 2 15 -2 -15 -26 197 -99 370 -128 100 -16 178 -18 835 -18 851 0 2170 12
2178 20 3 3 -325 6 -729 7 -499 2 -274 5 701 8 789 3 1437 2 1438 -2 6 -13 30
-9 39 6 10 17 134 41 192 37 26 -1 41 1 37 7 -3 6 2 8 14 5 11 -3 35 0 53 7
115 45 187 79 187 89 0 4 24 20 53 35 28 16 71 41 95 57 24 16 45 29 48 29 3
0 12 7 21 16 9 8 21 13 28 11 6 -3 20 6 30 19 10 13 24 24 31 24 8 0 14 4 14
10 0 5 4 9 9 7 16 -4 72 44 65 56 -4 7 -4 9 1 5 11 -11 36 12 28 25 -4 6 -1 7
6 2 26 -15 186 164 311 349 66 98 211 469 198 508 -2 6 -12 -18 -21 -53 -20
-71 -67 -202 -72 -197 -2 2 14 56 36 121 114 347 116 774 3 1137 -159 510
-552 935 -1033 1116 -164 62 -314 93 -494 101 -75 4 -107 9 -104 17 2 6 1 31
-4 56 l-8 45 3 -47 c5 -64 -10 -52 -19 15 -19 158 -89 376 -175 547 -112 223
-319 482 -488 610 -18 14 -41 32 -52 40 -130 106 -418 250 -586 294 -51 13
-55 13 -49 -2z m-445 -783 c-11 -43 -10 -76 15 -384 10 -121 10 -195 0 -290
-8 -80 8 -250 25 -260 14 -9 53 44 71 97 11 31 18 44 19 30 0 -33 -25 -87 -66
-143 -22 -30 -43 -76 -54 -117 -10 -37 -34 -111 -54 -166 -36 -100 -42 -146
-27 -221 8 -37 9 -38 11 -10 l2 30 8 -27 c4 -15 10 -54 13 -88 2 -34 10 -67
17 -73 7 -7 10 -7 7 -2 -8 14 13 38 46 53 23 10 27 10 21 0 -4 -8 -3 -10 2 -5
5 5 14 23 20 40 9 26 18 33 45 37 21 4 33 11 31 19 -1 7 7 28 18 46 12 19 18
41 14 51 -5 16 -4 16 5 4 8 -11 9 2 5 50 -9 98 9 174 58 247 23 34 44 60 46
58 2 -2 -13 -31 -33 -65 -48 -80 -65 -192 -40 -277 14 -49 35 -72 35 -39 0 7
15 21 33 29 18 9 45 30 60 46 15 17 33 31 41 31 7 0 25 28 40 63 15 34 31 69
35 77 5 9 18 60 31 115 19 81 21 115 16 187 -6 83 -5 92 25 165 17 43 35 101
39 128 8 50 8 50 9 10 0 -22 -5 -64 -13 -93 l-13 -53 21 19 c44 39 49 34 10
-10 -52 -57 -58 -75 -49 -157 9 -71 8 -144 -2 -176 -5 -15 5 -11 38 18 24 21
59 47 77 59 18 11 54 53 80 93 71 110 75 115 42 51 -17 -33 -40 -70 -51 -84
-10 -14 -19 -30 -19 -36 0 -7 -38 -45 -85 -85 -47 -39 -91 -84 -97 -99 -6 -15
-17 -40 -24 -57 -26 -62 -44 -121 -45 -150 0 -26 -2 -28 -10 -10 -9 20 -9 20
-6 0 1 -11 12 -25 25 -31 12 -6 19 -14 14 -19 -4 -4 3 -4 15 -1 35 11 194 113
232 149 26 24 31 27 22 10 -6 -12 -16 -25 -21 -28 -6 -3 -10 -11 -10 -17 0 -7
13 1 30 17 16 16 33 25 37 21 10 -10 -32 -49 -55 -51 -27 -2 -152 -79 -294
-182 -21 -15 -38 -32 -38 -39 0 -6 -7 -14 -15 -18 -8 -3 -15 -14 -15 -24 0
-10 -11 -24 -24 -32 -14 -7 -39 -32 -56 -57 l-32 -44 29 7 c15 4 42 13 58 22
53 25 10 -9 -52 -42 -31 -17 -61 -40 -67 -51 -6 -11 -19 -32 -28 -47 -10 -14
-18 -36 -18 -49 0 -12 -3 -19 -7 -16 -13 13 -33 -16 -33 -49 0 -19 -4 -34 -10
-34 -5 0 -10 5 -10 10 0 6 -3 10 -7 10 -5 0 -9 -16 -11 -36 -1 -19 -8 -45 -14
-57 -7 -12 -13 -24 -14 -27 0 -3 -3 -12 -7 -20 -17 -45 -28 -92 -27 -121 1
-19 -3 -62 -9 -97 -7 -35 -9 -68 -5 -74 4 -6 3 -8 -4 -5 -11 8 -24 -48 -27
-118 -1 -22 -6 -49 -10 -60 -11 -27 58 49 97 107 17 27 33 46 35 44 8 -7 -9
-75 -18 -73 -14 3 -119 -137 -107 -144 6 -4 8 -31 5 -68 -2 -34 -1 -63 2 -65
9 -6 42 20 34 27 -3 4 1 7 10 7 9 0 17 10 19 22 2 13 15 29 31 36 18 9 26 19
23 28 -3 8 -1 14 4 14 6 0 10 6 10 14 0 8 13 27 29 42 17 15 32 38 36 51 3 13
9 22 14 19 9 -6 31 59 31 91 0 10 7 28 16 39 15 18 15 18 10 -6 -5 -24 -4 -24
9 -6 19 25 19 13 1 -22 -7 -15 -17 -43 -21 -62 -7 -31 -6 -33 9 -21 9 7 16 11
16 8 0 -4 29 9 64 27 36 19 68 31 71 27 4 -3 5 1 3 9 -2 9 3 14 14 12 9 -1 19
2 23 8 3 5 1 10 -4 10 -6 0 -11 4 -11 9 0 5 8 8 18 7 12 -1 16 5 14 20 -5 40
46 129 65 111 3 -4 -2 -18 -11 -33 -10 -14 -16 -28 -13 -30 9 -10 38 48 32 65
-3 11 4 35 16 56 19 31 26 36 53 34 20 -2 50 7 81 25 82 46 141 66 218 72 125
10 137 16 185 89 36 56 51 69 98 90 31 14 62 25 68 25 29 0 143 53 185 85 44
35 77 47 213 78 37 9 85 27 107 42 23 14 41 22 41 18 0 -18 -107 -66 -197 -88
-67 -17 -109 -34 -137 -55 -43 -32 -176 -100 -197 -100 -6 0 -37 -11 -68 -25
-54 -25 -79 -50 -121 -122 -21 -35 -78 -56 -190 -68 -35 -4 -71 -11 -80 -15
-8 -4 -32 -15 -53 -25 -45 -22 -148 -115 -128 -115 12 0 11 -3 -1 -17 -9 -10
-23 -34 -33 -53 -9 -19 -31 -47 -48 -62 -43 -36 -27 -48 18 -14 45 35 45 20 0
-24 -19 -18 -32 -37 -30 -41 3 -4 -4 -5 -15 -2 -15 4 -33 -7 -66 -40 -25 -25
-54 -49 -64 -52 -11 -4 -20 -12 -20 -19 0 -7 -11 -19 -25 -26 -34 -18 -48 -63
-20 -66 6 0 15 -2 20 -4 6 -1 64 -1 130 0 157 2 223 21 295 86 32 29 127 77
139 70 4 -3 46 8 93 24 47 16 128 35 183 41 119 14 160 34 199 95 15 24 32 46
36 49 16 10 -47 -106 -66 -121 -17 -14 -14 -15 41 -11 49 4 86 18 202 76 135
67 146 75 240 170 96 97 140 134 206 167 17 10 52 32 76 51 24 18 48 33 54 33
11 0 -114 -100 -126 -100 -15 0 -58 -38 -185 -161 -113 -110 -121 -120 -90
-114 18 3 69 1 113 -6 44 -6 132 -12 195 -13 78 -2 134 -8 174 -20 55 -17 61
-17 94 -2 44 22 52 14 14 -13 -34 -24 -63 -27 -95 -9 -12 6 -97 16 -192 20
-93 5 -205 12 -247 14 -96 7 -157 -9 -257 -67 -75 -44 -95 -48 -321 -64 -119
-8 -159 -15 -205 -35 -46 -20 -66 -40 -40 -40 9 0 44 -13 78 -29 34 -16 81
-34 105 -40 23 -7 42 -15 42 -19 0 -18 69 -52 106 -52 36 -1 38 -2 20 -15 -11
-8 -18 -16 -15 -18 2 -1 23 -15 47 -30 24 -16 60 -43 80 -61 61 -55 95 -67
201 -72 81 -4 188 -21 179 -29 -2 -1 -66 1 -143 5 -157 9 -202 23 -270 84 -22
20 -61 48 -88 61 -26 14 -68 41 -93 60 -25 19 -51 35 -57 35 -7 0 -24 6 -38
14 -69 36 -157 58 -234 59 -79 2 -81 2 -183 -54 l-103 -56 35 -21 c20 -12 53
-26 74 -31 42 -12 76 -44 117 -111 59 -96 93 -129 151 -146 59 -17 116 -60
140 -105 23 -45 16 -55 -11 -15 -35 51 -85 96 -115 102 -71 16 -127 68 -192
177 -24 40 -39 52 -125 94 l-98 48 -111 -1 c-125 0 -181 -16 -249 -68 -39 -30
-45 -37 -48 -53 -1 -13 -44 -43 -60 -43 -16 0 -30 -16 -33 -38 -2 -7 -12 -22
-24 -32 l-22 -19 28 -6 c16 -4 40 -11 54 -16 20 -7 130 -15 256 -18 15 -1 37
-24 74 -78 29 -43 60 -86 68 -95 8 -10 16 -32 17 -50 2 -29 1 -31 -9 -14 -44
73 -112 175 -129 194 -18 19 -31 22 -101 22 -45 1 -99 5 -121 9 -159 35 -169
35 -180 0 -4 -11 -11 -17 -16 -14 -5 4 -9 -9 -9 -27 0 -23 -3 -29 -9 -19 -12
19 -22 -14 -25 -87 -1 -31 -4 -61 -8 -67 -12 -20 1 -236 17 -293 19 -66 32
-83 91 -117 24 -14 44 -28 44 -30 0 -8 -75 27 -82 38 -14 22 -18 -1 -9 -44 14
-59 14 -126 0 -135 -16 -9 -28 14 -23 44 8 41 -34 161 -66 194 l-29 29 -7 -38
c-3 -21 -12 -47 -19 -58 -6 -11 -10 -37 -7 -57 3 -24 0 -38 -7 -38 -7 0 -11
25 -11 69 0 42 -5 73 -12 77 -8 5 -10 -21 -5 -102 4 -84 1 -133 -14 -213 -10
-58 -19 -107 -19 -109 0 -2 -4 0 -10 3 -6 4 -10 -5 -10 -20 0 -16 -12 -38 -29
-56 -16 -16 -26 -31 -22 -34 4 -2 534 -5 1177 -7 643 -1 1131 -5 1084 -9 -115
-10 -4123 -9 -4230 0 -47 5 360 9 905 10 545 1 995 5 1000 9 31 22 88 107 105
157 24 69 40 197 40 310 l-1 80 -25 -30 c-13 -16 -47 -63 -74 -104 -28 -41
-50 -67 -50 -59 0 9 7 21 15 28 8 7 15 16 15 20 0 4 20 41 45 81 43 71 45 79
61 209 15 125 15 199 -2 289 -4 22 -3 32 4 27 11 -6 -1 60 -13 72 -4 4 -29 -5
-56 -21 -61 -34 -64 -21 -4 22 31 22 45 40 45 55 0 25 -30 119 -36 113 -2 -2
-31 22 -64 55 -33 32 -64 58 -68 58 -5 0 -18 9 -29 19 -19 18 -23 18 -49 5
l-29 -14 23 19 c31 27 28 36 -5 13 -64 -44 -161 -91 -203 -97 -61 -9 -85 -27
-108 -77 -24 -53 -85 -128 -121 -147 -14 -7 -51 -37 -81 -65 -90 -84 -157
-129 -176 -118 -15 8 -12 11 13 16 19 5 69 42 130 97 167 153 187 173 228 237
33 53 45 64 80 73 83 21 175 67 175 87 0 11 -70 40 -136 57 -69 17 -209 20
-326 8 -61 -7 -78 -6 -78 4 0 7 -6 13 -12 13 -20 -1 -99 -38 -133 -63 -37 -28
-105 -60 -170 -81 -38 -12 -69 -15 -123 -10 -69 7 -74 6 -148 -32 -63 -32 -92
-56 -167 -138 -57 -61 -107 -106 -132 -117 -51 -23 -82 -24 -35 -1 61 29 97
60 161 138 39 46 89 92 133 122 l71 47 109 2 c60 0 118 6 130 11 12 6 47 23
79 37 32 15 73 39 91 54 19 14 42 31 52 37 11 7 16 15 12 19 -27 28 -383 61
-465 43 -45 -10 -42 5 4 21 34 13 35 15 18 27 -10 8 -39 31 -63 51 -55 46
-131 89 -175 98 -17 4 -36 11 -42 15 -29 21 -109 39 -154 33 -28 -3 -56 -1
-67 5 -16 10 -12 11 24 12 55 0 52 14 -14 58 -80 54 -124 74 -219 98 -88 23
-88 23 -30 18 78 -8 149 -33 238 -85 140 -82 172 -99 192 -99 11 0 31 -6 45
-13 14 -7 53 -21 88 -31 34 -11 62 -23 62 -27 0 -5 10 -14 22 -20 22 -12 22
-12 5 15 -10 14 -13 26 -8 26 14 0 71 -60 71 -75 0 -21 58 -65 77 -58 12 5 15
2 10 -10 -6 -17 11 -20 208 -32 50 -3 106 -8 125 -11 l35 -5 -35 30 c-47 41
-34 39 40 -6 57 -34 69 -37 159 -41 81 -3 99 -2 110 12 12 14 11 16 -5 10 -17
-6 -17 -5 -4 9 8 9 32 17 52 19 33 2 43 11 17 14 -5 1 -13 2 -19 3 -5 0 -10
10 -10 20 0 26 -17 35 -56 33 -17 -1 -42 2 -55 7 -17 7 -19 10 -6 10 16 1 16
2 -2 20 -10 10 -25 23 -34 27 -11 7 -12 15 -5 34 9 24 10 24 24 6 8 -11 14
-16 14 -10 -1 13 -43 59 -71 77 -13 8 -50 20 -81 27 -74 15 -76 32 -3 24 35
-4 55 -3 55 3 0 13 -36 27 -129 48 -62 14 -178 60 -243 96 -10 5 -62 9 -115 9
-118 0 -152 14 -45 18 42 1 79 7 82 11 6 11 132 -28 203 -63 44 -21 160 -56
187 -56 5 0 2 17 -6 38 l-15 37 40 -42 c22 -24 46 -40 53 -38 8 3 28 -20 50
-55 40 -65 82 -94 99 -69 8 10 9 9 4 -8 -5 -18 -2 -20 15 -16 12 3 20 0 20 -6
0 -7 -5 -9 -12 -5 -10 6 -10 4 0 -8 15 -19 40 -18 53 3 7 11 9 11 9 -4 0 -9 3
-16 8 -15 4 1 17 -3 30 -10 12 -7 28 -12 35 -11 17 3 47 -11 47 -23 0 -13 52
-57 68 -58 7 0 10 -5 6 -11 -5 -8 1 -10 20 -7 15 3 24 3 22 0 -3 -3 2 -10 11
-17 14 -11 13 -13 -13 -19 -25 -7 -26 -9 -11 -17 9 -6 21 -8 26 -4 5 3 13 0
17 -6 4 -7 3 -9 -4 -5 -6 3 -13 2 -16 -3 -3 -5 8 -7 25 -6 28 2 30 0 26 -21
-3 -20 -1 -22 14 -14 28 16 67 12 81 -8 16 -21 101 -72 121 -72 8 0 20 -7 27
-15 7 -8 17 -15 22 -15 13 0 0 41 -21 64 -28 32 -132 108 -139 102 -3 -4 0
-11 7 -16 10 -5 6 -8 -12 -7 -15 1 -22 6 -17 12 5 6 -2 11 -18 11 -50 3 -71 8
-65 17 3 5 28 6 56 3 33 -5 52 -3 57 4 5 8 12 6 24 -6 10 -9 30 -18 44 -20 15
-1 32 -11 37 -21 6 -10 24 -31 42 -48 17 -16 33 -41 35 -54 1 -13 14 -31 28
-39 14 -9 22 -12 17 -7 -4 4 0 18 8 31 17 27 9 64 -30 122 -18 27 -25 47 -20
61 4 13 -3 42 -19 77 -14 31 -26 74 -26 95 0 45 -41 98 -99 129 l-36 19 32 1
c17 0 35 -4 38 -10 16 -26 22 -6 9 28 -21 50 -39 66 -30 27 6 -29 6 -29 -9
-10 -10 12 -14 29 -10 43 6 25 4 27 -104 114 -30 23 -69 66 -88 93 -19 28 -40
57 -48 67 -16 19 -169 68 -234 74 -25 3 -55 6 -66 8 -11 3 -49 6 -85 7 -56 3
-50 4 37 8 l103 6 -31 33 c-41 44 -32 50 17 11 21 -17 53 -38 70 -45 43 -18
186 -56 191 -50 2 2 -3 18 -11 35 -21 40 -20 48 4 26 25 -23 25 -24 -5 60 -38
103 -43 108 -140 139 -48 15 -85 29 -83 31 2 2 37 -2 78 -10 41 -7 76 -12 77
-11 3 3 -43 198 -56 238 -8 24 -42 65 -99 119 -48 46 -86 89 -84 95 1 7 -17
40 -40 73 -24 32 -60 87 -81 120 -22 35 -45 61 -55 61 -15 1 -15 2 1 11 22 13
16 19 69 -66 78 -126 156 -229 218 -290 76 -74 90 -101 125 -240 15 -60 44
-150 65 -200 20 -49 45 -112 55 -138 10 -26 21 -50 25 -52 4 -3 20 28 36 68
35 93 46 259 20 333 -19 55 -16 62 10 33 16 -17 20 -40 22 -133 4 -118 -13
-205 -59 -300 -10 -22 -19 -48 -19 -57 0 -27 21 -71 49 -101 24 -28 49 -39 35
-16 -4 7 -3 8 4 4 7 -4 12 -14 12 -22 0 -8 4 -14 9 -14 4 0 24 -13 42 -30 19
-16 40 -30 47 -30 6 0 12 -10 13 -22 0 -22 1 -22 9 -3 5 11 9 31 9 45 1 14 5
32 11 40 17 28 23 0 11 -57 -7 -38 -8 -60 -1 -67 5 -5 10 -18 10 -28 0 -10 5
-18 11 -18 6 0 9 -9 6 -20 -3 -11 -1 -20 4 -20 15 0 39 -65 39 -107 1 -21 8
-49 16 -63 15 -24 15 -21 -1 30 -7 22 -6 23 8 11 14 -11 18 -11 23 3 3 9 11
13 16 10 6 -4 9 -1 6 7 -3 8 1 33 8 57 7 23 9 40 4 37 -6 -4 -7 6 -4 23 4 20
1 32 -12 43 -16 12 -17 12 -9 -1 6 -12 6 -13 -6 -2 -10 9 -11 15 -2 20 8 5 6
17 -7 45 -10 20 -17 37 -15 37 2 0 -19 53 -45 118 -60 148 -64 166 -61 285 2
89 -1 103 -24 144 -28 50 -7 40 25 -13 18 -29 21 -47 19 -131 -2 -103 7 -154
46 -238 12 -27 28 -64 35 -82 7 -18 18 -37 25 -43 7 -6 -2 27 -21 73 -33 84
-52 147 -41 137 3 -3 22 -37 41 -75 35 -69 35 -70 36 -33 0 20 3 44 7 54 4 10
2 15 -3 11 -5 -3 -10 3 -10 13 0 10 5 16 10 13 5 -4 7 1 3 11 -4 10 -2 26 3
37 6 11 13 63 16 116 6 103 11 124 25 102 6 -9 9 4 9 36 0 36 -3 46 -10 35 -6
-10 -8 -2 -4 25 4 30 3 36 -5 25 -8 -12 -11 -5 -11 30 0 32 -11 64 -36 110
-41 76 -86 192 -104 270 -7 30 -46 122 -88 203 -87 170 -135 223 -249 277 -64
31 -93 54 -92 75 0 6 7 0 16 -12 8 -13 52 -40 97 -61 75 -36 118 -69 174 -135
12 -15 22 -33 22 -40 0 -6 16 16 36 51 30 54 35 70 32 110 -3 26 -8 56 -13 67
-7 19 -7 19 9 4 10 -9 20 -35 23 -58 5 -35 0 -54 -33 -117 -30 -59 -36 -78
-28 -92 54 -86 130 -259 150 -338 23 -92 52 -158 99 -223 21 -29 25 -31 25
-13 0 11 5 24 11 28 9 5 10 -1 5 -22 -10 -39 -3 -30 32 41 16 33 40 98 52 145
22 88 22 159 -2 257 -7 31 -6 67 7 147 13 88 14 118 5 183 -7 43 -11 119 -10
168 0 50 -4 121 -10 158 -9 57 -8 78 6 128 19 68 31 74 14 8z m755 -219 c-4
-12 -9 -19 -12 -17 -3 3 -2 15 2 27 4 12 9 19 12 17 3 -3 2 -15 -2 -27z m-825
-410 c6 -11 8 -20 6 -20 -3 0 -10 9 -16 20 -6 11 -8 20 -6 20 3 0 10 -9 16
-20z m-1053 -42 c-3 -8 -6 -5 -6 6 -1 11 2 17 5 13 3 -3 4 -12 1 -19z m1260
-100 c-3 -8 -6 -5 -6 6 -1 11 2 17 5 13 3 -3 4 -12 1 -19z m2692 -606 c45 -40
81 -78 81 -83 0 -5 -30 19 -67 55 -38 35 -81 76 -98 90 -16 15 -22 24 -13 19
9 -4 53 -41 97 -81z m-6185 -43 c-2 -31 -13 -53 -15 -28 0 10 -3 9 -7 -3 -5
-12 -11 -15 -22 -8 -12 7 -13 13 -3 27 6 10 16 17 22 16 6 -2 11 4 11 12 0 8
4 15 8 15 5 0 7 -14 6 -31z m-53 -53 c5 3 9 0 9 -6 0 -15 -23 -7 -26 8 -1 7 0
8 3 2 2 -5 9 -8 14 -4z m3179 -38 c0 -32 -3 -39 -10 -28 -13 20 -13 70 0 70 6
0 10 -19 10 -42z m3214 -31 c150 -190 297 -488 320 -652 4 -22 -5 -1 -19 47
-26 92 -78 225 -122 312 -38 76 -149 243 -200 303 -25 29 -42 53 -37 53 5 -1
31 -29 58 -63z m-3245 -52 c1 -17 -1 -17 -9 -5 -5 8 -9 26 -9 40 0 23 1 23 9
5 5 -11 9 -29 9 -40z m2111 25 c-8 -5 -19 -10 -25 -10 -5 0 -3 5 5 10 8 5 20
10 25 10 6 0 3 -5 -5 -10z m-632 -115 c-12 -24 -23 -43 -26 -41 -4 5 36 86 43
86 3 0 -5 -20 -17 -45z m-2972 -17 c16 -12 33 -29 38 -38 8 -12 11 -11 17 10
6 20 7 16 8 -18 1 -38 8 -50 52 -98 29 -30 48 -54 43 -54 -16 0 -91 82 -117
128 -13 23 -39 54 -57 67 -19 14 -29 25 -23 25 6 0 23 -10 39 -22z m2545 -35
c-6 -10 -26 -35 -46 -57 -19 -21 -32 -43 -28 -50 3 -6 3 -8 -1 -5 -19 17 -106
-98 -132 -174 -20 -59 -30 -55 -14 4 19 69 36 95 132 200 88 97 109 116 89 82z
m-6 -53 c-10 -11 -20 -18 -23 -15 -3 3 3 14 13 25 10 11 20 18 23 15 3 -3 -3
-14 -13 -25z m-2605 10 c8 -5 11 -10 5 -10 -5 0 -17 5 -25 10 -8 5 -10 10 -5
10 6 0 17 -5 25 -10z m77 -36 c-3 -3 -12 -4 -19 -1 -8 3 -5 6 6 6 11 1 17 -2
13 -5z m3993 -51 c-8 -3 -23 -10 -32 -15 -11 -5 -18 -5 -18 1 0 10 23 18 50
19 13 0 13 0 0 -5z m-1959 -119 c-22 -54 -45 -100 -50 -102 -6 -2 -11 -13 -11
-25 -1 -20 -1 -21 -11 -4 -8 14 -5 26 14 55 14 20 40 73 58 117 18 43 34 74
36 68 2 -6 -14 -55 -36 -109z m-1851 32 c22 -27 -5 -17 -31 10 -21 24 -22 26
-3 16 11 -6 26 -18 34 -26z m1207 2 c-3 -8 -6 -5 -6 6 -1 11 2 17 5 13 3 -3 4
-12 1 -19z m132 -25 c5 -50 5 -116 0 -125 -4 -6 -10 20 -13 56 -4 36 -5 70 -1
76 9 14 11 13 14 -7z m-2245 -71 c-5 -7 -52 30 -58 45 -4 8 9 2 27 -13 19 -16
33 -30 31 -32z m1949 -10 c20 -14 36 -27 34 -29 -9 -8 -60 19 -90 48 -28 27
-29 29 -7 18 14 -7 42 -23 63 -37z m264 -29 c-3 -10 -5 -2 -5 17 0 19 2 27 5
18 2 -10 2 -26 0 -35z m-2170 31 c-3 -3 -12 -4 -19 -1 -8 3 -5 6 6 6 11 1 17
-2 13 -5z m1587 -39 c35 -19 79 -53 100 -75 20 -22 41 -40 46 -40 6 0 10 -5
10 -10 0 -16 -53 15 -80 47 -25 29 -121 93 -140 93 -6 0 -10 5 -10 10 0 15 7
13 74 -25z m393 -11 c-3 -3 -12 -4 -19 -1 -8 3 -5 6 6 6 11 1 17 -2 13 -5z
m788 -50 c-70 -59 -99 -91 -116 -129 -12 -27 -18 -34 -18 -20 -2 45 42 109 99
142 66 39 75 41 35 7z m-565 -24 c0 -5 -2 -10 -4 -10 -3 0 -8 5 -11 10 -3 6
-1 10 4 10 6 0 11 -4 11 -10z m320 -27 c-11 -17 -11 -17 -6 0 3 10 6 24 7 30
0 9 2 9 5 0 3 -7 0 -20 -6 -30z m-309 0 c-12 -20 -14 -14 -5 12 4 9 9 14 11
11 3 -2 0 -13 -6 -23z m-2018 0 c-13 -2 -35 -2 -50 0 -16 2 -5 4 22 4 28 0 40
-2 28 -4z m1255 -18 c-3 -3 -9 2 -12 12 -6 14 -5 15 5 6 7 -7 10 -15 7 -18z
m428 -17 c62 -41 80 -61 105 -118 11 -25 34 -60 51 -77 35 -37 30 -44 -9 -13
-14 11 -29 17 -34 14 -5 -3 -9 2 -9 11 0 23 -55 127 -76 146 -27 23 -84 49
-108 49 -17 0 -18 2 -6 10 23 15 33 12 86 -22z m244 -10 c0 -9 -4 -20 -10 -23
-6 -4 -10 9 -10 32 0 28 3 34 10 23 5 -8 10 -23 10 -32z m3617 -20 c-3 -7 -5
-2 -5 12 0 14 2 19 5 13 2 -7 2 -19 0 -25z m-3204 -50 c-3 -16 -10 -28 -15
-28 -6 0 -7 7 -4 16 3 9 6 25 6 37 0 13 4 17 9 12 5 -6 7 -22 4 -37z m-723
-64 c0 -2 -9 0 -20 6 -11 6 -20 13 -20 16 0 2 9 0 20 -6 11 -6 20 -13 20 -16z
m3947 -51 c-2 -16 -4 -3 -4 27 0 30 2 43 4 28 2 -16 2 -40 0 -55z m-4602 6 c4
-5 -10 -2 -29 8 -20 9 -36 20 -36 24 0 9 57 -19 65 -32z m725 12 c28 -16 29
-19 11 -24 -20 -5 -61 17 -61 34 0 14 16 11 50 -10z m1148 12 c-10 -2 -26 -2
-35 0 -10 3 -2 5 17 5 19 0 27 -2 18 -5z m-561 -35 c-3 -8 -6 -5 -6 6 -1 11 2
17 5 13 3 -3 4 -12 1 -19z m-969 -11 c3 -14 -1 -15 -19 -8 -32 11 -37 32 -7
28 12 -2 24 -11 26 -20z m4269 -180 c-2 -23 -3 -1 -3 48 0 50 1 68 3 42 2 -26
2 -67 0 -90z m-5077 73 c-8 -6 -22 -10 -30 -9 -9 0 -5 6 10 14 27 14 44 10 20
-5z m-85 -19 c21 -6 -7 -9 -96 -8 -75 1 -132 -2 -140 -9 -8 -5 -27 -15 -44
-22 l-30 -12 24 18 c51 37 113 53 186 47 39 -3 84 -9 100 -14z m1875 -60 c0
-6 -4 -12 -8 -15 -5 -3 -9 1 -9 9 0 8 4 15 9 15 4 0 8 -4 8 -9z m-44 -56 c-1
-8 -5 -17 -8 -21 -5 -4 -4 16 1 34 3 9 9 -1 7 -13z m3321 -72 c-2 -16 -4 -5
-4 22 0 28 2 40 4 28 2 -13 2 -35 0 -50z m-1744 -112 c102 -37 133 -59 186
-126 28 -36 47 -65 41 -65 -5 0 -29 26 -52 57 -35 46 -56 63 -115 90 -39 18
-77 33 -83 33 -15 0 -61 30 -87 58 -35 35 -27 37 15 4 20 -16 63 -39 95 -51z
m1734 32 c-3 -10 -5 -4 -5 12 0 17 2 24 5 18 2 -7 2 -21 0 -30z m-1097 -7 c0
-2 -9 -6 -20 -9 -11 -3 -18 -1 -14 4 5 9 34 13 34 5z m-63 -12 c-3 -3 -12 -4
-19 -1 -8 3 -5 6 6 6 11 1 17 -2 13 -5z m-272 -22 c-3 -3 -11 0 -18 7 -9 10
-8 11 6 5 10 -3 15 -9 12 -12z m193 1 c-10 -2 -26 -2 -35 0 -10 3 -2 5 17 5
19 0 27 -2 18 -5z m1229 -25 c-3 -7 -5 -2 -5 12 0 14 2 19 5 13 2 -7 2 -19 0
-25z m-22 -98 c-18 -71 -55 -173 -60 -168 -2 2 9 42 25 89 15 47 32 103 36
125 4 21 9 34 11 27 2 -6 -3 -39 -12 -73z m-5284 -83 c-10 -9 -11 -8 -5 6 3
10 9 15 12 12 3 -3 0 -11 -7 -18z m-23 -42 c-6 -14 -13 -23 -15 -21 -5 5 15
46 22 46 3 0 -1 -11 -7 -25z m5218 -112 c-14 -26 -25 -45 -26 -41 0 12 43 98
48 94 2 -2 -8 -26 -22 -53z m-4369 25 c-3 -8 -6 -5 -6 6 -1 11 2 17 5 13 3 -3
4 -12 1 -19z m-2283 -54 c3 -8 2 -12 -4 -9 -6 3 -10 10 -10 16 0 14 7 11 14
-7z m6827 -73 c-17 -34 -33 -61 -36 -61 -3 0 10 29 27 65 18 35 34 63 36 61 2
-2 -11 -31 -27 -65z m-233 -12 c-73 -134 -224 -312 -343 -404 -106 -82 -145
-108 -145 -98 0 4 26 25 57 45 138 89 313 275 404 430 60 101 77 118 27 27z
m-6553 11 c9 -16 13 -30 11 -30 -3 0 -12 14 -21 30 -9 17 -13 30 -11 30 3 0
12 -13 21 -30z m6685 -180 c-6 -11 -13 -20 -16 -20 -2 0 0 9 6 20 6 11 13 20
16 20 2 0 0 -9 -6 -20z m-3263 -355 c14 -33 38 -81 55 -107 16 -26 28 -53 26
-59 -8 -23 -127 199 -128 237 0 30 14 40 18 12 2 -12 15 -50 29 -83z m-2887 5
c8 -5 11 -10 5 -10 -5 0 -17 5 -25 10 -8 5 -10 10 -5 10 6 0 17 -5 25 -10z
m5515 1 c-38 -35 -281 -149 -293 -136 -4 4 70 38 110 50 25 9 121 59 153 81
22 16 45 19 30 5z m-5465 -31 c8 -5 11 -10 5 -10 -5 0 -17 5 -25 10 -8 5 -10
10 -5 10 6 0 17 -5 25 -10z m5160 -109 c0 -5 -12 -11 -27 -14 -16 -3 -36 -9
-45 -12 -10 -4 -18 -3 -18 2 0 5 19 14 43 20 23 5 43 11 45 12 1 0 2 -3 2 -8z
m-4893 -7 c-3 -3 -12 -4 -19 -1 -8 3 -5 6 6 6 11 1 17 -2 13 -5z m46 -11 c-7
-2 -19 -2 -25 0 -7 3 -2 5 12 5 14 0 19 -2 13 -5z m4737 -12 c0 -5 -21 -12
-46 -16 -26 -3 -53 -9 -60 -12 -8 -3 -14 0 -14 6 0 6 15 11 33 12 17 0 41 4
52 9 27 11 35 12 35 1z m-4591 -17 c11 -10 -9 -9 -59 2 l-55 13 55 -6 c30 -3
57 -7 59 -9z m1428 -260 c-3 -3 -12 -4 -19 -1 -8 3 -5 6 6 6 11 1 17 -2 13 -5z
m40 0 c-3 -3 -12 -4 -19 -1 -8 3 -5 6 6 6 11 1 17 -2 13 -5z"/>
<path d="M5442 9320 c0 -14 2 -19 5 -12 2 6 2 18 0 25 -3 6 -5 1 -5 -13z"/>
<path d="M5260 9160 c-9 -6 -10 -10 -3 -10 6 0 15 5 18 10 8 12 4 12 -15 0z"/>
<path d="M5070 8950 c0 -5 5 -10 11 -10 5 0 7 5 4 10 -3 6 -8 10 -11 10 -2 0
-4 -4 -4 -10z"/>
<path d="M5821 8583 c-13 -27 -13 -28 8 -9 11 10 18 23 15 27 -8 13 -10 12
-23 -18z"/>
<path d="M5813 8498 c-31 -35 -40 -56 -14 -33 21 18 46 55 38 55 -2 0 -13 -10
-24 -22z"/>
<path d="M5053 8485 c-3 -9 -3 -18 -1 -21 3 -3 8 4 11 16 6 23 -1 27 -10 5z"/>
<path d="M5524 8109 c0 -22 12 -25 19 -5 3 8 0 16 -6 19 -7 3 -13 -3 -13 -14z"/>
<path d="M5502 8100 c0 -14 2 -19 5 -12 2 6 2 18 0 25 -3 6 -5 1 -5 -13z"/>
<path d="M5020 8073 c0 -4 5 -15 10 -23 8 -13 10 -13 10 2 0 9 -4 20 -10 23
-5 3 -10 3 -10 -2z"/>
<path d="M5227 8003 c-3 -5 -2 -15 2 -22 5 -7 11 -9 14 -4 3 5 2 15 -2 22 -5
7 -11 9 -14 4z"/>
<path d="M5092 7700 c0 -14 2 -19 5 -12 2 6 2 18 0 25 -3 6 -5 1 -5 -13z"/>
<path d="M5102 7230 c0 -14 2 -19 5 -12 2 6 2 18 0 25 -3 6 -5 1 -5 -13z"/>
<path d="M5596 11468 c3 -5 10 -6 15 -3 13 9 11 12 -6 12 -8 0 -12 -4 -9 -9z"/>
<path d="M7042 10105 c0 -16 2 -22 5 -12 2 9 2 23 0 30 -3 6 -5 -1 -5 -18z"/>
<path d="M3161 10104 c0 -11 3 -14 6 -6 3 7 2 16 -1 19 -3 4 -6 -2 -5 -13z"/>
<path d="M3152 10045 c0 -16 2 -22 5 -12 2 9 2 23 0 30 -3 6 -5 -1 -5 -18z"/>
<path d="M7385 9956 c59 -12 88 -10 65 4 -6 4 -37 7 -68 8 l-57 0 60 -12z"/>
<path d="M7675 9870 c11 -5 27 -9 35 -9 9 0 8 4 -5 9 -11 5 -27 9 -35 9 -9 0
-8 -4 5 -9z"/>
<path d="M7770 9831 c41 -24 60 -27 40 -7 -8 8 -28 17 -45 21 l-30 6 35 -20z"/>
<path d="M7830 9807 c13 -14 80 -46 80 -38 0 5 -15 15 -32 22 -18 7 -37 15
-43 17 -5 3 -8 2 -5 -1z"/>
<path d="M2460 9620 c-8 -5 -10 -10 -5 -10 6 0 17 5 25 10 8 5 11 10 5 10 -5
0 -17 -5 -25 -10z"/>
<path d="M1999 9560 c-13 -10 -20 -19 -16 -20 4 0 17 9 29 20 28 26 17 26 -13
0z"/>
<path d="M2346 9554 c-24 -23 -19 -27 9 -8 14 9 25 18 25 20 0 10 -20 3 -34
-12z"/>
<path d="M2156 9457 c3 -10 9 -15 12 -12 3 3 0 11 -7 18 -10 9 -11 8 -5 -6z"/>
<path d="M1865 9430 c-10 -11 -13 -20 -8 -20 13 0 38 29 31 35 -3 3 -13 -4
-23 -15z"/>
<path d="M1824 9378 c-11 -13 -26 -32 -34 -43 -14 -19 -14 -19 3 -6 18 14 62
71 54 71 -2 0 -12 -10 -23 -22z"/>
<path d="M1756 9294 c-5 -14 -4 -15 9 -4 17 14 19 20 6 20 -5 0 -12 -7 -15
-16z"/>
<path d="M1670 9168 c-12 -22 -12 -22 6 -6 10 10 15 20 12 24 -4 3 -12 -5 -18
-18z"/>
<path d="M1636 9113 c-6 -14 -5 -15 5 -6 7 7 10 15 7 18 -3 3 -9 -2 -12 -12z"/>
<path d="M1596 9033 c-6 -14 -5 -15 5 -6 7 7 10 15 7 18 -3 3 -9 -2 -12 -12z"/>
<path d="M8641 8930 c0 -8 4 -22 9 -30 12 -18 12 -2 0 25 -6 13 -9 15 -9 5z"/>
<path d="M8721 8694 c0 -11 3 -14 6 -6 3 7 2 16 -1 19 -3 4 -6 -2 -5 -13z"/>
<path d="M1432 8540 c0 -14 2 -19 5 -12 2 6 2 18 0 25 -3 6 -5 1 -5 -13z"/>
<path d="M8761 8524 c0 -11 3 -14 6 -6 3 7 2 16 -1 19 -3 4 -6 -2 -5 -13z"/>
<path d="M1422 8475 c0 -16 2 -22 5 -12 2 9 2 23 0 30 -3 6 -5 -1 -5 -18z"/>
<path d="M8772 8465 c0 -16 2 -22 5 -12 2 9 2 23 0 30 -3 6 -5 -1 -5 -18z"/>
<path d="M1412 8395 c0 -16 2 -22 5 -12 2 9 2 23 0 30 -3 6 -5 -1 -5 -18z"/>
<path d="M1404 8195 c0 -71 1 -99 3 -62 2 37 2 96 0 130 -2 34 -3 4 -3 -68z"/>
<path d="M8787 8123 c-4 -93 -14 -211 -22 -263 -16 -104 -17 -116 -10 -109 16
17 46 278 46 398 -1 74 -3 136 -5 138 -1 2 -6 -72 -9 -164z"/>
<path d="M1432 7840 c0 -14 2 -19 5 -12 2 6 2 18 0 25 -3 6 -5 1 -5 -13z"/>
<path d="M2671 5611 c-9 -6 -10 -11 -2 -15 15 -9 16 -1426 1 -1426 -6 0 -11
171 -12 488 -4 659 -5 692 -17 588 -6 -48 -7 -50 -41 -54 -19 -2 -41 -9 -49
-15 -12 -9 -13 -9 -7 1 5 8 -1 12 -18 12 -14 0 -26 -5 -26 -11 0 -5 -4 -7 -10
-4 -10 6 -15 -9 -10 -30 1 -5 -7 -2 -17 6 -10 9 -24 14 -30 12 -10 -4 -13 19
-15 89 -3 148 -15 -162 -17 -418 -1 -169 -4 -214 -15 -223 -15 -12 -34 14
-274 364 -34 50 -71 101 -83 115 l-20 25 7 -25 c4 -14 9 -32 11 -40 4 -13 4
-13 -6 0 -9 13 -11 12 -12 -5 l0 -20 -9 20 c-5 11 -9 16 -10 10 0 -5 -7 1 -16
15 -13 22 -14 22 -9 3 6 -24 -12 -26 -38 -5 -12 10 -14 8 -10 -15 3 -26 3 -27
-6 -5 -6 12 -19 22 -30 22 -11 0 -26 7 -34 15 -13 13 -16 13 -21 0 -3 -8 -10
-15 -17 -15 -6 0 -9 7 -6 14 4 10 1 13 -8 10 -7 -3 -16 3 -20 15 -3 12 -11 21
-16 21 -5 0 -9 8 -9 18 0 9 -10 23 -21 31 -21 13 -21 12 2 -26 13 -21 42 -66
64 -100 22 -35 92 -144 155 -244 178 -283 390 -603 408 -616 11 -9 61 -14 151
-15 l136 -2 -105 -6 c-58 -3 -89 -7 -70 -9 19 -1 58 -4 86 -6 28 -3 70 -8 93
-14 40 -9 43 -8 53 17 8 22 11 881 3 1042 -1 19 -2 122 -3 228 -1 105 -5 192
-9 192 -5 0 -14 -4 -22 -9z m-833 -558 c0 -21 -2 -23 -10 -9 -5 9 -6 21 -3 26
10 16 13 12 13 -17z"/>
<path d="M3320 5611 c-55 -7 -32 -21 36 -21 l44 0 1 -487 c0 -400 3 -494 15
-523 9 -22 12 -26 9 -10 -2 14 -5 256 -5 538 l0 512 -27 -2 c-16 0 -48 -4 -73
-7z"/>
<path d="M1470 5600 c34 -10 180 -10 205 0 12 5 -32 8 -105 8 -72 0 -114 -3
-100 -8z"/>
<path d="M2367 5603 c-4 -3 -7 -25 -8 -47 -1 -35 -2 -38 -9 -16 -11 35 -12 24
-10 -240 1 -129 1 -279 0 -333 -1 -68 2 -97 9 -92 8 4 11 -24 11 -89 0 -57 -4
-96 -10 -96 -15 0 -12 -12 10 -40 19 -25 19 -22 22 468 2 270 0 492 -3 492 -3
0 -9 -3 -12 -7z m-10 -200 c-3 -10 -5 -4 -5 12 0 17 2 24 5 18 2 -7 2 -21 0
-30z"/>
<path d="M2408 5603 c6 -2 18 -2 25 0 6 3 1 5 -13 5 -14 0 -19 -2 -12 -5z"/>
<path d="M6828 5603 c21 -8 14 -1433 -7 -1433 -3 0 -5 174 -3 387 3 347 -7
798 -15 733 -8 -60 -14 -75 -23 -59 -7 10 -11 6 -16 -19 -5 -26 -9 -30 -20
-21 -8 6 -12 15 -9 19 6 9 -12 23 -32 26 -7 1 -18 -5 -25 -14 -11 -15 -11 -15
4 -4 12 10 18 10 24 1 4 -7 3 -9 -4 -5 -6 3 -13 2 -17 -3 -4 -7 -15 -7 -31 -1
-14 6 -23 7 -21 2 3 -4 -1 -13 -8 -19 -11 -10 -15 -9 -20 9 -6 16 -9 18 -16 7
-6 -9 -9 2 -9 34 0 26 -4 47 -10 47 -7 0 -10 -192 -10 -555 l0 -555 123 -2
c87 -1 109 -3 77 -8 -30 -5 -36 -8 -18 -8 15 -1 48 -7 73 -14 63 -17 67 -9 60
137 -2 66 -8 388 -11 715 -6 593 -7 611 -39 609 -5 0 -4 -3 3 -6z"/>
<path d="M4787 5593 c-3 -4 -6 -303 -8 -663 -2 -394 -7 -667 -12 -684 -8 -22
-7 -31 1 -34 7 -2 12 -12 12 -22 0 -35 19 -31 26 5 6 35 -4 1396 -11 1403 -1
2 -5 0 -8 -5z"/>
<path d="M1381 4955 c0 -352 3 -646 8 -654 8 -12 4 1261 -4 1284 -2 6 -4 -278
-4 -630z"/>
<path d="M3087 5574 c-13 -13 -7 -892 7 -964 10 -55 12 15 9 445 -3 281 -5
514 -6 518 -2 5 -6 5 -10 1z"/>
<path d="M5810 5576 c0 -3 24 -17 53 -30 77 -37 131 -88 167 -159 19 -36 29
-50 25 -33 -16 73 -86 156 -163 195 -44 22 -82 35 -82 27z"/>
<path d="M8170 5573 c0 -16 188 -485 315 -788 53 -126 128 -306 167 -400 63
-153 98 -221 98 -188 0 13 -64 173 -145 363 -30 69 -90 211 -134 315 -43 105
-105 249 -136 320 -31 72 -72 171 -92 220 -40 104 -73 175 -73 158z"/>
<path d="M6520 4876 c0 -453 3 -697 10 -701 7 -4 10 230 10 694 0 461 -3 701
-10 701 -7 0 -10 -238 -10 -694z"/>
<path d="M4403 5520 c0 -25 2 -35 4 -22 2 12 2 32 0 45 -2 12 -4 2 -4 -23z"/>
<path d="M8135 5550 c3 -5 8 -10 11 -10 2 0 4 5 4 10 0 6 -5 10 -11 10 -5 0
-7 -4 -4 -10z"/>
<path d="M2712 5530 c0 -14 2 -19 5 -12 2 6 2 18 0 25 -3 6 -5 1 -5 -13z"/>
<path d="M1780 5525 c0 -10 50 -85 57 -85 5 0 -35 69 -49 85 -4 5 -8 5 -8 0z"/>
<path d="M6872 5495 c0 -16 2 -22 5 -12 2 9 2 23 0 30 -3 6 -5 -1 -5 -18z"/>
<path d="M8160 5499 c0 -4 11 -37 25 -73 24 -63 24 -69 9 -97 -19 -37 -29 -33
-14 5 6 18 6 25 0 21 -6 -3 -10 -11 -10 -17 0 -6 -8 -17 -17 -25 -10 -8 -12
-11 -4 -7 10 5 12 3 7 -5 -6 -9 -11 -9 -22 0 -12 10 -13 8 -8 -7 6 -15 4 -17
-6 -7 -11 10 -17 10 -31 -3 -16 -15 -17 -14 -12 5 5 19 3 20 -18 13 -18 -7
-27 -5 -37 7 -14 18 25 -93 127 -359 69 -179 85 -249 59 -251 -65 -7 -456 -4
-465 3 -14 11 -7 33 57 203 23 61 50 133 60 160 11 28 37 95 59 149 23 55 39
101 36 104 -2 3 -8 -6 -13 -19 -21 -57 -20 -55 -21 -38 -1 9 -8 16 -16 16 -14
0 -19 -10 -16 -29 0 -5 -4 -8 -10 -8 -5 0 -8 -4 -4 -9 3 -5 1 -12 -5 -16 -5
-3 -10 -1 -10 6 0 7 -3 9 -7 6 -3 -4 -12 1 -20 11 -8 9 -12 12 -9 6 3 -6 -7
-16 -22 -23 -25 -11 -26 -10 -8 4 11 8 16 15 11 15 -5 0 -17 -7 -27 -16 -14
-13 -21 -14 -32 -5 -11 10 -15 8 -20 -6 -3 -10 -4 -6 -2 10 2 15 -1 27 -5 27
-5 0 -9 -15 -9 -32 -1 -27 -3 -30 -10 -16 -8 12 -5 32 10 69 11 29 18 54 16
56 -5 5 -48 -98 -245 -582 -95 -231 -185 -449 -200 -485 -16 -36 -27 -68 -24
-72 2 -5 64 -8 137 -8 l132 0 64 161 c37 92 71 164 81 170 10 5 151 9 317 9
245 0 302 -3 311 -14 7 -8 40 -83 74 -168 l63 -153 134 -3 c73 -1 137 1 140 5
4 4 -54 152 -129 328 -190 443 -253 594 -333 789 -65 159 -87 209 -88 195z
m64 -175 c3 -8 2 -12 -4 -9 -6 3 -10 10 -10 16 0 14 7 11 14 -7z"/>
<path d="M4360 5344 c0 -105 -21 -198 -35 -156 -3 12 -11 20 -16 16 -5 -3 -7
-10 -4 -15 3 -5 -2 -6 -11 -2 -13 5 -15 3 -10 -8 4 -8 1 -6 -6 3 -11 15 -13
15 -26 0 -9 -12 -11 -12 -6 -2 5 10 -1 8 -16 -5 -13 -11 -21 -15 -17 -9 3 6
-4 10 -18 10 -14 0 -21 -4 -17 -10 3 -6 -2 -5 -11 3 -14 11 -17 11 -18 0 -2
-24 -17 34 -20 76 -2 22 -5 -113 -8 -300 l-6 -340 -28 -60 c-35 -76 -67 -109
-137 -143 -52 -25 -63 -27 -195 -27 -132 0 -144 2 -198 27 -82 39 -132 94
-157 175 -18 60 -20 94 -21 432 -2 344 -3 363 -21 209 -1 -10 -5 -19 -8 -19
-16 -4 -61 -8 -100 -10 -25 -1 -51 -6 -57 -11 -9 -7 -18 -7 -28 2 -12 10 -15
9 -17 -6 -1 -11 -4 33 -7 96 -4 81 -8 -1 -14 -280 -9 -437 -5 -489 50 -598 29
-56 110 -139 166 -167 48 -25 133 -51 212 -65 79 -14 340 -8 418 9 182 40 286
113 351 246 49 102 54 163 49 613 -3 224 -7 409 -9 411 -2 2 -4 -40 -4 -95z"/>
<path d="M6802 5345 c0 -16 2 -22 5 -12 2 9 2 23 0 30 -3 6 -5 -1 -5 -18z"/>
<path d="M6016 5335 c15 -62 12 -105 -8 -105 -5 0 -6 5 -3 10 3 6 3 10 0 10
-9 0 -55 -36 -52 -41 1 -3 -4 4 -12 13 -10 13 -18 15 -32 7 -10 -5 -19 -16
-19 -24 0 -8 -5 -15 -11 -15 -5 0 -7 -6 -4 -12 4 -7 -1 -4 -9 6 -23 28 -45 29
-38 2 5 -19 4 -19 -9 -6 -8 8 -21 31 -29 50 -18 47 -34 64 -23 25 4 -16 7 -56
7 -88 -2 -72 -35 -127 -97 -159 -40 -22 -55 -23 -295 -26 -140 -2 -264 -1
-278 2 l-24 6 -2 178 c-1 101 -3 134 -5 77 -4 -119 -8 -141 -29 -149 -12 -5
-15 -2 -10 10 6 15 4 15 -11 3 -10 -7 -15 -9 -11 -5 10 11 -11 38 -23 30 -14
-8 -11 -26 4 -18 6 4 3 -2 -8 -13 -21 -21 -41 -21 -29 0 4 7 4 9 -1 5 -4 -4
-15 -2 -23 5 -10 8 -13 8 -9 1 9 -15 -16 -25 -34 -14 -8 6 -16 4 -21 -3 -6 -9
-8 -8 -9 3 -1 8 -5 -3 -9 -25 -5 -26 -8 13 -10 115 -4 151 -4 148 -10 -90 -4
-135 -8 -397 -9 -583 l-1 -339 458 5 c279 3 480 10 517 17 138 26 252 114 297
230 31 80 31 217 0 285 -38 84 -93 128 -195 161 -59 18 -65 27 -19 30 45 2 48
4 28 19 -11 8 -34 15 -50 16 -30 1 -31 1 -5 8 27 9 66 29 83 43 73 60 89 86
106 174 12 63 2 151 -21 184 -8 11 -9 7 -3 -15z m-209 -187 c-3 -7 -5 -2 -5
12 0 14 2 19 5 13 2 -7 2 -19 0 -25z m-103 -353 c84 -22 149 -148 126 -246
-16 -66 -47 -109 -100 -139 -45 -25 -47 -25 -339 -28 -234 -3 -296 0 -302 10
-15 22 -11 392 4 407 9 10 73 12 297 8 157 -3 298 -8 314 -12z"/>
<path d="M5806 4565 c-3 -9 -6 -22 -5 -28 0 -7 5 -1 10 12 5 13 8 26 5 28 -2
2 -6 -3 -10 -12z"/>
<path d="M1901 5333 c7 -12 15 -20 18 -17 3 2 -3 12 -13 22 -17 16 -18 16 -5
-5z"/>
<path d="M5100 5329 c0 -18 2 -19 15 -9 15 12 12 30 -6 30 -5 0 -9 -10 -9 -21z"/>
<path d="M1931 5294 c8 -24 264 -402 267 -395 2 5 -32 60 -74 122 -43 63 -101
150 -131 193 -55 82 -69 99 -62 80z"/>
<path d="M5693 5286 c4 -10 7 -32 8 -49 0 -26 2 -28 8 -13 7 19 8 18 16 -5 4
-13 11 -37 15 -54 7 -27 7 -25 9 15 1 48 -24 111 -48 118 -10 3 -12 0 -8 -12z"/>
<path d="M7958 5252 c-9 -26 -40 -103 -68 -172 -28 -69 -69 -170 -90 -225 -21
-55 -41 -108 -45 -117 -6 -14 -2 -18 18 -18 30 0 44 15 22 24 -22 8 -20 18 29
119 24 51 67 160 96 242 29 83 58 155 65 160 12 10 9 35 -3 35 -4 0 -15 -22
-24 -48z"/>
<path d="M6068 5207 c-8 -92 -48 -177 -105 -217 -46 -34 -50 -46 -10 -36 76
19 118 95 125 224 5 104 -3 126 -10 29z"/>
<path d="M1950 5206 c0 -10 40 -76 46 -76 3 0 -2 12 -10 28 -22 40 -36 58 -36
48z"/>
<path d="M4092 5180 c0 -14 2 -19 5 -12 2 6 2 18 0 25 -3 6 -5 1 -5 -13z"/>
<path d="M4394 4970 c0 -129 2 -182 3 -117 2 64 2 170 0 235 -1 64 -3 11 -3
-118z"/>
<path d="M5711 5184 c0 -11 3 -14 6 -6 3 7 2 16 -1 19 -3 4 -6 -2 -5 -13z"/>
<path d="M1650 5125 c-2 -45 -4 -54 -10 -35 -8 25 -8 25 -15 -7 -8 -37 -13
-40 -29 -17 -11 14 -13 14 -27 -3 -13 -17 -13 -17 6 -3 19 14 19 14 6 -2 -7
-10 -18 -15 -25 -11 -16 11 -36 12 -36 3 0 -13 -34 -6 -48 10 -10 13 -11 12
-5 -5 6 -18 5 -19 -12 -5 -10 8 -16 11 -13 5 3 -5 2 -19 -3 -30 l-9 -20 1 20
c1 11 0 45 -1 75 l-3 55 -7 -70 c-4 -38 -7 -257 -6 -485 l1 -415 128 -3 128
-3 -2 483 c-1 266 -6 492 -10 503 -5 14 -8 0 -9 -40z"/>
<path d="M1681 4678 c-1 -462 -2 -508 -17 -508 -14 0 -14 -3 -4 -15 16 -19 37
-19 56 -1 11 12 14 70 14 330 0 173 -4 317 -9 320 -10 6 -15 262 -5 277 4 6
14 3 27 -8 18 -16 18 -14 -4 23 -63 107 -58 143 -58 -418z m36 55 c-3 -10 -5
-4 -5 12 0 17 2 24 5 18 2 -7 2 -21 0 -30z m0 -140 c-3 -10 -5 -4 -5 12 0 17
2 24 5 18 2 -7 2 -21 0 -30z m0 -205 c-3 -8 -6 -5 -6 6 -1 11 2 17 5 13 3 -3
4 -12 1 -19z"/>
<path d="M4881 5150 c0 -8 6 -23 14 -34 13 -18 14 -18 12 2 0 11 -4 19 -8 16
-4 -2 -10 4 -12 13 -3 13 -5 13 -6 3z"/>
<path d="M5101 5124 c0 -11 3 -14 6 -6 3 7 2 16 -1 19 -3 4 -6 -2 -5 -13z"/>
<path d="M5720 5100 c-6 -12 -9 -24 -7 -27 3 -2 11 5 17 17 6 12 9 24 7 27 -3
2 -11 -5 -17 -17z"/>
<path d="M7566 5035 c-9 -26 -7 -32 5 -12 6 10 9 21 6 23 -2 3 -7 -2 -11 -11z"/>
<path d="M5101 5024 c0 -11 3 -14 6 -6 3 7 2 16 -1 19 -3 4 -6 -2 -5 -13z"/>
<path d="M2210 4875 c0 -10 65 -105 73 -105 14 0 6 18 -28 64 -33 43 -45 53
-45 41z"/>
<path d="M4093 4835 c0 -22 2 -30 4 -17 2 12 2 30 0 40 -3 9 -5 -1 -4 -23z"/>
<path d="M7485 4840 c-4 -12 -5 -24 -2 -27 3 -2 8 5 12 17 4 12 5 24 2 27 -3
2 -8 -5 -12 -17z"/>
<path d="M8171 4820 c0 -8 4 -22 9 -30 12 -18 12 -2 0 25 -6 13 -9 15 -9 5z"/>
<path d="M8185 4750 c-5 -8 -39 -11 -104 -10 -164 3 -221 0 -221 -10 0 -6 63
-10 169 -10 166 0 199 6 173 32 -6 6 -12 6 -17 -2z"/>
<path d="M2302 4730 c14 -22 24 -19 15 5 -4 8 -11 15 -17 15 -6 0 -6 -7 2 -20z"/>
<path d="M4093 4690 c0 -30 2 -43 4 -27 2 15 2 39 0 55 -2 15 -4 2 -4 -28z"/>
<path d="M6116 4715 c4 -11 9 -61 12 -111 5 -111 -11 -174 -67 -262 -42 -64
-39 -82 6 -34 39 41 61 98 72 189 10 83 1 190 -20 222 -8 13 -9 12 -3 -4z"/>
<path d="M7416 4664 c-15 -36 -25 -68 -23 -70 2 -2 16 26 30 63 15 37 25 68
23 70 -2 2 -16 -26 -30 -63z"/>
<path d="M2006 4662 c10 -19 25 -39 33 -45 9 -8 8 0 -5 21 -10 19 -25 39 -33
45 -9 8 -8 0 5 -21z"/>
<path d="M2060 4582 c0 -12 51 -84 57 -79 4 5 -46 87 -53 87 -2 0 -4 -3 -4 -8z"/>
<path d="M7352 4513 c-16 -38 -33 -79 -37 -93 -4 -14 -13 -32 -20 -40 -30 -34
-82 -191 -54 -163 12 12 150 355 145 360 -1 2 -17 -27 -34 -64z"/>
<path d="M3111 4504 c0 -11 3 -14 6 -6 3 7 2 16 -1 19 -3 4 -6 -2 -5 -13z"/>
<path d="M4011 4479 c-13 -11 -22 -22 -19 -24 2 -3 15 6 28 20 28 30 24 32 -9
4z"/>
<path d="M7667 4493 c-4 -3 -7 -11 -7 -17 0 -6 5 -5 12 2 6 6 9 14 7 17 -3 3
-9 2 -12 -2z"/>
<path d="M8280 4488 c0 -9 32 -104 54 -161 22 -56 24 -72 14 -90 -10 -20 -10
-21 7 -7 16 14 17 13 11 -8 -4 -13 -3 -21 2 -20 5 2 19 -8 30 -22 19 -22 21
-23 22 -6 0 18 -48 140 -96 242 -13 28 -24 56 -24 62 0 7 -4 12 -10 12 -5 0
-10 -1 -10 -2z"/>
<path d="M7643 4435 c-3 -9 -3 -18 -1 -21 3 -3 8 4 11 16 6 23 -1 27 -10 5z"/>
<path d="M3940 4430 c0 -5 7 -7 15 -4 8 4 15 8 15 10 0 2 -7 4 -15 4 -8 0 -15
-4 -15 -10z"/>
<path d="M4332 4395 c-12 -26 -46 -71 -74 -101 -57 -60 -56 -70 4 -23 37 30
103 139 96 160 -2 6 -14 -11 -26 -36z"/>
<path d="M7615 4364 c-34 -78 -66 -167 -62 -171 9 -8 25 25 56 111 32 90 36
130 6 60z"/>
<path d="M7423 4163 c15 -2 37 -2 50 0 12 2 0 4 -28 4 -27 0 -38 -2 -22 -4z"/>
<path d="M8490 4159 c28 -11 220 -8 220 4 0 4 -55 7 -122 6 -92 0 -117 -3 -98
-10z"/>
</g>
</svg>
