<?xml version="1.0" standalone="no"?>
<!DOCTYPE svg PUBLIC "-//W3C//DTD SVG 20010904//EN"
 "http://www.w3.org/TR/2001/REC-SVG-20010904/DTD/svg10.dtd">
<svg version="1.0" xmlns="http://www.w3.org/2000/svg"
 width="1024.000000pt" height="1536.000000pt" viewBox="0 0 1024.000000 1536.000000"
 preserveAspectRatio="xMidYMid meet">

<g transform="translate(0.000000,1536.000000) scale(0.100000,-0.100000)"
fill="#000000" stroke="none">
<path d="M0 7680 l0 -7680 5120 0 5120 0 0 7680 0 7680 -5120 0 -5120 0 0
-7680z m5805 4420 c3 -5 1 -10 -4 -10 -6 0 -11 5 -11 10 0 6 2 10 4 10 3 0 8
-4 11 -10z m-1213 -442 c-7 -7 -12 -8 -12 -2 0 14 12 26 19 19 2 -3 -1 -11 -7
-17z m118 6 c0 -2 -9 -4 -21 -4 -11 0 -18 4 -14 10 5 8 35 3 35 -6z m228 9
c-10 -2 -28 -2 -40 0 -13 2 -5 4 17 4 22 1 32 -1 23 -4z m370 0 c-15 -2 -42
-2 -60 0 -18 2 -6 4 27 4 33 0 48 -2 33 -4z m77 -3 c3 -5 -1 -10 -10 -10 -9 0
-13 5 -10 10 3 6 8 10 10 10 2 0 7 -4 10 -10z m132 -12 c1 -10 -5 -18 -12 -18
-9 0 -12 6 -8 16 5 14 3 15 -15 5 -11 -6 -27 -11 -34 -11 -15 1 41 27 57 27 6
0 12 -9 12 -19z m-674 5 c-7 -2 -21 -2 -30 0 -10 3 -4 5 12 5 17 0 24 -2 18
-5z m-208 -13 c-3 -5 -14 -10 -23 -9 -14 0 -13 2 3 9 27 11 27 11 20 0z m128
3 c-7 -2 -19 -2 -25 0 -7 3 -2 5 12 5 14 0 19 -2 13 -5z m667 -17 c439 -69
874 -297 1141 -597 128 -144 253 -332 329 -494 68 -148 142 -402 152 -525 l3
-35 120 -6 c397 -22 776 -192 1066 -479 274 -272 434 -567 515 -955 25 -117
28 -151 28 -340 1 -215 -9 -324 -44 -470 -18 -78 -79 -259 -85 -253 -2 2 14
56 36 121 159 481 100 1052 -153 1494 -119 208 -322 433 -508 566 -241 171
-559 281 -848 294 -99 5 -125 9 -131 22 -5 9 -14 50 -21 91 -90 569 -468 1082
-993 1348 -148 75 -372 151 -390 132 -9 -10 -9 -11 1 -6 6 4 12 2 12 -4 0 -13
-49 -55 -63 -55 -4 0 -11 -5 -15 -11 -4 -6 -24 -14 -45 -18 -24 -4 -35 -11
-31 -18 5 -8 -6 -9 -37 -5 -65 10 -29 -8 66 -32 294 -75 589 -238 800 -443
180 -174 279 -317 374 -538 75 -174 131 -410 131 -551 0 -31 5 -70 11 -87 l11
-31 191 6 c216 6 291 -3 458 -58 454 -149 808 -498 982 -969 37 -102 62 -198
54 -206 -3 -3 -11 21 -17 53 -16 74 -82 246 -131 341 -152 292 -397 540 -669
677 -97 48 -252 104 -354 127 -101 22 -286 29 -423 15 -111 -12 -117 -5 -127
129 -20 297 -114 578 -273 818 -91 138 -289 335 -436 434 -468 313 -1015 393
-1563 227 -456 -139 -858 -495 -1045 -926 -74 -170 -103 -299 -119 -524 -12
-173 -8 -169 -140 -159 -219 17 -368 0 -560 -64 -239 -81 -405 -186 -595 -376
-193 -194 -301 -365 -378 -601 -52 -157 -68 -258 -74 -442 -8 -252 24 -477 92
-645 14 -34 23 -63 21 -65 -7 -8 -63 150 -85 237 -46 189 -56 508 -21 710 55
323 233 651 469 864 96 86 150 133 177 153 20 15 23 20 9 16 -11 -3 -36 -18
-55 -33 -19 -15 -43 -30 -52 -33 -10 -4 -18 -13 -18 -21 0 -8 -5 -18 -12 -22
-7 -5 -8 -3 -3 7 7 12 6 12 -9 0 -14 -11 -22 -12 -36 -3 -15 9 -17 8 -12 -11
3 -12 1 -19 -3 -15 -4 4 -24 0 -44 -8 -20 -8 -49 -16 -64 -16 -18 -1 -24 -4
-15 -9 9 -6 7 -10 -7 -14 -11 -4 -27 -9 -35 -13 -8 -3 -18 -5 -22 -4 -4 1 -5
-5 -2 -13 4 -10 2 -13 -8 -10 -8 3 -20 -1 -27 -9 -10 -12 -18 -13 -37 -4 -23
11 -23 12 -7 30 9 10 14 21 11 24 -3 3 -26 -21 -50 -53 -210 -279 -317 -540
-359 -876 -16 -130 -7 -461 16 -587 34 -184 108 -387 205 -560 17 -30 24 -46
15 -35 -32 39 -104 181 -145 285 -157 398 -160 931 -6 1328 131 339 332 601
625 815 256 186 562 295 879 314 111 7 132 16 132 59 0 43 40 224 72 324 57
180 167 383 307 565 110 144 307 324 466 427 231 150 547 261 845 298 105 12
466 4 580 -14z m160 13 c0 -5 -4 -7 -10 -4 -5 3 -10 1 -10 -4 0 -6 -5 -11 -11
-11 -8 0 -8 5 1 15 14 17 30 20 30 4z m-883 -5 c-3 -3 -12 -4 -19 -1 -8 3 -5
6 6 6 11 1 17 -2 13 -5z m938 -12 c-3 -3 -11 0 -18 7 -9 10 -8 11 6 5 10 -3
15 -9 12 -12z m-1115 -2 c0 -5 -5 -10 -11 -10 -5 0 -7 5 -4 10 3 6 8 10 11 10
2 0 4 -4 4 -10z m87 -6 c-3 -3 -12 -4 -19 -1 -8 3 -5 6 6 6 11 1 17 -2 13 -5z
m-92 -24 c-11 -5 -27 -9 -35 -9 -9 0 -8 4 5 9 11 5 27 9 35 9 9 0 8 -4 -5 -9z
m-83 -7 c-6 -2 -10 -8 -7 -12 2 -5 -8 -6 -23 -4 -21 4 -24 2 -12 -6 8 -6 10
-11 4 -11 -18 0 -24 13 -13 27 6 7 23 13 38 12 14 0 20 -3 13 -6z m1348 -2 c0
-6 -5 -13 -12 -17 -7 -5 -8 -3 -3 6 6 10 3 12 -13 8 -12 -4 -20 -2 -16 3 7 12
44 12 44 0z m47 -5 c4 -7 15 -15 23 -18 10 -3 8 -6 -7 -10 -12 -3 -22 -3 -21
1 3 27 -3 34 -15 17 -12 -16 -13 -16 -14 3 -2 24 22 28 34 7z m-1497 -21 c0
-8 -4 -15 -10 -15 -5 0 -10 7 -10 15 0 8 5 15 10 15 6 0 10 -7 10 -15z m1351
-29 c5 3 9 0 9 -5 0 -6 -7 -11 -15 -11 -8 0 -15 8 -14 18 0 10 3 12 6 4 2 -6
9 -10 14 -6z m-1436 -26 c6 -10 -24 -22 -36 -14 -5 3 -9 0 -9 -6 0 -6 -4 -9
-10 -5 -5 3 -7 12 -4 19 6 14 51 19 59 6z m1738 3 c-7 -2 -21 -2 -30 0 -10 3
-4 5 12 5 17 0 24 -2 18 -5z m82 -13 c3 -6 -1 -7 -9 -4 -18 7 -21 14 -7 14 6
0 13 -4 16 -10z m-1945 -54 c0 -2 -7 -7 -16 -10 -8 -3 -12 -2 -9 4 6 10 25 14
25 6z m-108 -35 c3 -20 0 -27 -8 -24 -12 4 -14 53 -3 53 4 0 9 -13 11 -29z
m48 17 c0 -5 5 -6 12 -2 7 4 8 3 4 -4 -4 -6 -14 -8 -23 -5 -12 5 -14 3 -8 -8
5 -8 4 -11 0 -6 -15 13 -14 34 1 34 8 0 14 -4 14 -9z m1470 8 c0 -3 -4 -8 -10
-11 -5 -3 -10 -1 -10 4 0 6 5 11 10 11 6 0 10 -2 10 -4z m-1597 -91 c4 -8 1
-17 -5 -21 -7 -4 -8 -3 -4 4 5 8 -1 12 -14 12 -13 0 -19 -4 -14 -12 4 -7 3 -8
-4 -4 -17 10 -15 24 6 29 29 8 30 8 35 -8z m37 9 c0 -8 -19 -13 -24 -6 -3 5 1
9 9 9 8 0 15 -2 15 -3z m-70 -50 c0 -8 -19 -13 -24 -6 -3 5 1 9 9 9 8 0 15 -2
15 -3z m-30 -18 c0 -2 -8 -10 -17 -17 -16 -13 -17 -12 -4 4 13 16 21 21 21 13z
m-56 -35 c3 -4 -4 -17 -16 -27 -13 -12 -18 -13 -12 -4 5 8 9 18 10 23 3 15 4
17 8 17 3 0 7 -4 10 -9z m-44 -44 c0 -1 -44 -45 -97 -97 -53 -52 -90 -86 -81
-75 12 14 14 25 8 35 -16 25 -12 50 6 43 11 -4 14 -13 9 -32 l-7 -26 26 24
c14 13 23 28 19 34 -3 6 -2 7 4 4 6 -4 21 5 34 20 23 24 23 25 3 19 -16 -5
-23 -2 -27 13 -6 24 0 31 27 30 20 0 20 -1 1 -8 -17 -7 -17 -8 8 -13 18 -4 32
1 43 13 16 18 24 23 24 16z m-190 -200 c0 -2 -15 -16 -32 -33 l-33 -29 29 33
c28 30 36 37 36 29z m-74 -69 c-3 -13 -5 -25 -5 -27 -1 -2 -8 2 -16 9 -17 14
-21 35 -5 25 6 -3 10 -1 10 4 0 6 4 11 10 11 5 0 8 -10 6 -22z m-29 -43 c0 -8
-4 -12 -9 -9 -5 3 -6 10 -3 15 9 13 12 11 12 -6z m-24 -29 c6 -15 -1 -26 -15
-26 -4 0 -8 9 -8 20 0 23 15 27 23 6z m-67 -78 c4 -7 4 -10 -1 -6 -4 4 -15 2
-24 -5 -14 -11 -14 -10 -2 6 16 20 18 21 27 5z m1844 -37 c-11 -42 -4 -261 10
-291 3 -8 4 -28 0 -45 -3 -16 1 -65 9 -108 12 -64 13 -92 3 -160 -7 -46 -12
-103 -12 -128 0 -59 21 -209 30 -209 23 0 80 94 80 131 0 12 3 20 6 16 15 -14
-10 -82 -53 -145 -29 -42 -52 -91 -63 -132 -9 -36 -32 -101 -51 -145 -31 -74
-33 -87 -33 -182 2 -111 9 -148 24 -123 7 11 10 0 10 -36 0 -28 6 -59 15 -70
8 -10 15 -14 15 -8 0 6 18 23 40 38 22 14 47 40 55 56 9 17 19 28 24 26 11 -7
51 23 51 38 0 7 7 27 16 44 8 18 12 37 8 43 -4 8 -3 9 5 5 9 -6 10 8 5 56 -9
94 8 167 56 238 22 33 43 60 45 60 2 0 -12 -28 -32 -61 -47 -81 -63 -191 -38
-274 14 -50 35 -75 35 -42 0 7 18 20 40 30 22 9 40 21 40 27 0 5 4 10 10 10
25 0 71 65 103 146 49 124 61 190 62 329 1 109 3 126 29 185 16 36 32 88 36
115 7 49 8 49 9 10 1 -40 -9 -92 -25 -130 -6 -15 2 -12 36 14 l45 34 -50 -52
-50 -52 0 -148 c0 -105 3 -147 11 -143 53 33 170 145 191 185 8 16 17 26 20
23 3 -3 -9 -24 -26 -48 -17 -23 -31 -47 -31 -54 0 -7 -29 -35 -64 -63 -72 -57
-126 -115 -126 -134 0 -7 -9 -32 -20 -54 -11 -23 -25 -62 -32 -87 -7 -25 -15
-46 -19 -46 -3 0 -6 -10 -5 -22 1 -19 7 -23 34 -21 32 1 33 0 16 -18 -9 -10
-14 -19 -10 -19 14 0 191 118 234 155 23 21 42 34 42 30 0 -16 -66 -82 -107
-105 -98 -57 -246 -163 -250 -180 -3 -10 -11 -21 -19 -24 -8 -3 -14 -11 -14
-18 0 -7 -16 -26 -35 -42 -19 -16 -35 -34 -35 -39 0 -5 -15 -22 -32 -38 l-33
-29 40 11 c22 6 59 22 82 35 23 13 48 24 55 24 13 -1 -22 -22 -98 -59 -53 -26
-96 -60 -89 -71 3 -5 -5 -16 -17 -24 -12 -9 -18 -16 -13 -16 5 0 4 -5 -3 -12
-7 -7 -12 -23 -12 -35 0 -17 -5 -23 -17 -21 -14 2 -19 -5 -21 -32 -3 -34 -22
-69 -22 -41 0 11 -3 11 -15 1 -9 -7 -13 -21 -10 -31 4 -10 -1 -33 -9 -51 -28
-61 -44 -123 -50 -198 -4 -41 -14 -100 -23 -130 -8 -30 -17 -83 -18 -117 -1
-34 -8 -69 -15 -78 -7 -8 -9 -15 -4 -15 12 0 89 90 115 135 26 43 33 40 23
-10 -5 -26 -9 -33 -15 -23 -5 7 -9 8 -9 3 0 -9 -18 -33 -95 -127 -10 -12 -11
-19 -3 -24 7 -4 8 -30 3 -77 l-6 -69 33 23 c18 13 35 27 37 32 2 5 7 3 12 -4
13 -20 12 7 -1 31 -7 12 -6 18 3 17 37 -1 46 5 53 35 8 41 32 78 49 78 8 0 16
14 20 31 4 17 13 33 21 36 7 3 16 26 20 54 4 27 13 57 21 66 14 17 14 16 10
-4 -3 -13 -2 -23 3 -23 4 0 2 -17 -6 -37 -16 -46 -18 -73 -4 -73 6 0 10 5 10
11 0 5 4 8 8 5 5 -3 34 11 66 30 31 18 61 34 67 34 5 0 9 5 9 10 0 6 6 10 14
10 7 0 20 8 27 17 9 11 10 14 2 9 -9 -5 -11 -2 -7 8 3 9 11 13 17 9 5 -3 7 -2
4 4 -14 23 42 138 59 121 4 -4 -1 -19 -10 -34 -10 -14 -15 -28 -13 -31 11 -10
38 47 32 66 -6 19 17 67 40 83 5 4 27 7 47 6 22 -1 45 5 55 14 49 43 144 75
245 83 113 10 116 11 162 83 48 75 53 79 190 127 54 19 117 47 139 62 80 56
94 62 200 87 60 15 121 34 135 44 48 33 125 75 119 64 -4 -5 -39 -29 -78 -53
-51 -30 -104 -52 -178 -71 -78 -20 -121 -38 -161 -66 -55 -38 -123 -73 -170
-87 -90 -26 -136 -56 -175 -115 -47 -70 -74 -84 -196 -100 -46 -6 -106 -21
-134 -34 -50 -23 -178 -132 -140 -119 15 4 12 -2 -13 -29 -18 -20 -35 -43 -36
-53 -1 -9 -16 -31 -33 -49 -46 -48 -51 -60 -15 -42 17 9 37 23 46 31 9 9 16
12 16 6 0 -5 -19 -26 -42 -47 -42 -36 -43 -36 -13 -30 17 4 38 9 48 12 9 3 17
1 17 -4 0 -12 -69 -23 -98 -15 -18 4 -31 -3 -60 -34 -20 -21 -49 -47 -64 -56
-16 -10 -28 -24 -28 -32 0 -8 -3 -14 -7 -13 -14 5 -55 -30 -49 -41 4 -7 1 -8
-8 -5 -9 3 -16 1 -16 -5 0 -11 1 -12 36 -16 12 -1 25 -5 30 -8 5 -3 74 -2 154
2 157 8 184 17 265 81 53 42 106 69 149 74 18 3 49 11 68 19 48 20 128 37 224
47 90 9 131 29 171 81 14 19 23 26 19 16 -3 -10 -6 -23 -6 -27 0 -5 -12 -21
-27 -36 l-28 -26 60 4 c49 4 85 17 200 74 135 66 144 73 245 174 59 60 133
123 170 145 36 22 82 52 102 67 20 16 81 49 135 73 54 25 87 37 74 27 -14 -9
-50 -28 -80 -41 -31 -13 -78 -40 -105 -60 -28 -20 -69 -47 -92 -61 -24 -14
-101 -81 -172 -150 l-130 -126 82 -1 c45 -1 101 -6 125 -13 27 -7 70 -9 115
-5 55 5 91 2 158 -14 60 -14 95 -18 110 -12 13 5 40 16 61 25 55 24 45 12 -20
-24 l-58 -31 -60 17 c-39 11 -104 18 -185 19 -69 2 -166 6 -216 10 -115 9
-179 -4 -264 -54 -91 -54 -113 -59 -310 -71 -151 -10 -183 -15 -232 -37 -55
-24 -74 -43 -45 -43 7 0 31 -9 52 -21 49 -25 114 -49 136 -49 8 0 32 -16 53
-35 33 -30 46 -35 90 -36 49 -1 50 -1 23 -13 -31 -14 -27 -21 28 -49 17 -8 56
-38 87 -65 66 -58 113 -72 238 -72 57 0 94 -6 132 -21 29 -12 64 -25 78 -29
17 -6 19 -9 7 -9 -10 -1 -34 6 -55 15 -24 11 -86 19 -174 24 -121 7 -143 11
-184 34 -51 29 -58 31 -49 16 11 -18 77 -56 120 -70 86 -27 133 -59 180 -120
38 -49 62 -68 123 -100 97 -49 86 -52 -13 -4 -58 28 -83 48 -116 91 -43 56
-87 84 -191 123 -61 23 -108 57 -112 82 -3 24 -49 64 -109 94 -28 15 -67 39
-87 55 -50 40 -193 97 -287 113 -95 17 -125 9 -255 -66 l-87 -50 -133 -2
c-117 -2 -138 -5 -177 -25 -25 -13 -50 -28 -57 -35 -7 -6 -26 -22 -44 -35 -19
-15 -27 -27 -20 -31 6 -3 -11 -17 -37 -31 -27 -14 -49 -32 -52 -43 -4 -22 -20
-41 -41 -48 -30 -10 124 -38 240 -45 l120 -6 56 -84 c31 -46 66 -90 77 -98 19
-13 19 -15 4 -15 -15 0 -16 -3 -7 -21 7 -11 10 -23 7 -25 -2 -2 -25 31 -50 74
-25 42 -61 95 -79 115 l-33 38 -105 4 c-58 2 -132 11 -165 20 -80 20 -94 19
-107 -10 -6 -13 -15 -22 -19 -19 -5 3 -9 -7 -9 -23 0 -20 -3 -24 -9 -14 -6 10
-11 2 -16 -26 -36 -216 -20 -449 35 -508 11 -11 44 -33 75 -48 30 -16 55 -30
55 -32 0 -8 -66 19 -92 37 -41 28 -49 23 -33 -23 17 -48 20 -135 4 -144 -15
-10 -17 -6 -23 55 -6 67 -38 154 -70 194 l-24 29 -7 -46 c-4 -25 -13 -54 -20
-63 -7 -11 -11 -33 -7 -56 3 -27 1 -38 -8 -38 -10 0 -12 23 -8 98 2 53 3 84 0
68 -3 -23 -6 -26 -14 -15 -6 9 -8 -22 -5 -96 3 -69 -1 -144 -10 -200 -19 -125
-22 -137 -33 -130 -6 3 -10 -6 -10 -20 0 -17 -12 -39 -34 -61 l-34 -34 1145 0
c769 0 1168 4 1216 11 328 49 593 183 827 418 186 187 292 368 371 631 32 109
39 101 8 -10 -25 -94 -99 -262 -157 -360 -168 -282 -471 -527 -778 -629 -107
-36 -212 -58 -336 -71 -133 -14 -4148 -13 -4276 1 -53 5 -131 17 -172 25 -254
51 -538 206 -735 399 -100 98 -96 97 14 -3 210 -192 442 -317 716 -384 89 -22
99 -22 1108 -25 559 -2 1016 0 1015 4 -2 5 13 29 33 53 20 25 46 71 58 103 25
68 44 222 39 322 l-3 70 -40 -54 c-22 -30 -55 -77 -72 -105 -50 -78 -39 -46
15 45 26 44 52 90 59 102 14 27 43 241 43 317 -1 30 -5 75 -10 100 -6 32 -5
47 3 52 8 5 8 8 1 8 -6 0 -9 13 -6 30 6 43 -18 48 -74 15 -64 -38 -66 -25 -2
21 57 42 60 51 38 117 -15 47 -114 145 -177 177 -39 20 -44 24 -27 30 18 7 18
7 -3 14 -16 5 -40 -6 -95 -41 -52 -35 -95 -53 -149 -66 -74 -18 -76 -19 -98
-64 -29 -60 -91 -140 -114 -148 -9 -4 -57 -42 -106 -85 -114 -100 -133 -112
-184 -116 l-42 -4 52 16 c41 13 73 35 153 110 56 52 105 94 110 94 11 0 98
107 129 158 18 31 32 42 59 47 65 12 138 45 167 75 27 28 27 30 8 30 -12 0
-23 4 -25 9 -1 5 -37 19 -79 30 -84 23 -224 29 -351 16 -66 -6 -77 -5 -80 9
-2 13 -13 10 -68 -17 -36 -19 -90 -48 -121 -65 -91 -52 -162 -70 -249 -65
-113 8 -172 -25 -310 -168 -88 -91 -114 -112 -159 -129 -75 -27 -76 -18 -1 16
48 21 76 44 128 103 91 103 117 126 190 168 63 35 64 36 148 29 77 -7 88 -5
152 22 83 35 212 117 212 135 0 36 -441 69 -500 37 -22 -12 -24 -11 -13 2 7 8
32 20 55 27 37 12 40 14 22 24 -10 6 -44 31 -74 56 -60 51 -126 85 -237 125
-60 21 -83 24 -136 19 -43 -4 -67 -2 -71 6 -5 7 6 11 33 11 23 0 41 4 41 8 0
38 -168 124 -295 152 -114 26 -158 45 -199 89 -38 40 -27 40 18 1 44 -39 81
-54 186 -75 92 -19 159 -48 289 -124 48 -29 132 -66 195 -87 66 -22 127 -49
151 -68 l40 -31 -29 38 c-16 20 -25 37 -20 37 12 0 74 -62 74 -75 0 -14 54
-67 66 -64 5 1 18 1 29 0 18 -2 18 -3 -4 -12 -13 -5 -22 -11 -20 -14 2 -2 67
-6 144 -9 77 -2 163 -7 190 -11 l50 -6 -30 25 c-16 14 -58 40 -93 57 -35 17
-61 33 -59 36 6 6 117 -50 187 -95 63 -40 154 -55 255 -42 33 4 51 8 40 9 -17
1 -18 3 -5 12 11 8 8 9 -14 4 -26 -5 -28 -4 -17 9 9 10 30 16 58 16 36 0 42 2
31 13 -7 8 -20 12 -30 9 -13 -3 -16 1 -13 16 4 24 -11 31 -81 37 -44 4 -75 15
-41 15 9 0 17 5 17 10 0 6 -7 10 -16 10 -8 0 -13 4 -10 9 3 5 -9 12 -27 15
-27 6 -29 8 -14 17 24 14 21 54 -5 79 -24 22 -106 50 -145 50 -13 0 -21 4 -18
10 3 6 31 7 68 3 56 -6 61 -5 49 10 -7 8 -54 25 -104 37 -51 11 -137 41 -191
66 -95 42 -105 45 -203 47 -127 4 -151 17 -30 17 l88 0 -49 46 c-49 47 -35 42
24 -8 18 -15 52 -32 75 -39 24 -6 81 -28 128 -49 47 -21 110 -43 140 -50 30
-6 63 -14 73 -17 17 -4 17 -3 -2 16 -12 12 -21 29 -21 38 0 12 10 6 34 -20 19
-21 40 -35 48 -32 9 4 24 -13 43 -45 28 -49 77 -96 105 -102 8 -2 22 -11 33
-21 10 -11 27 -17 38 -14 10 3 17 2 15 -2 -3 -4 4 -13 16 -20 11 -7 17 -8 14
-3 -3 6 8 9 26 7 33 -2 60 -22 92 -66 13 -18 25 -25 39 -21 14 3 18 1 13 -6
-4 -7 -1 -12 9 -12 9 0 13 -4 10 -10 -7 -11 0 -12 33 -3 17 4 20 8 11 14 -8 4
-10 11 -6 15 4 4 26 -2 50 -14 l42 -21 -53 0 c-29 -1 -51 -5 -48 -10 3 -4 -7
-7 -22 -5 -15 2 -19 1 -9 -2 9 -3 17 -10 17 -15 0 -5 7 -9 16 -9 8 0 12 -4 9
-10 -4 -6 7 -10 27 -10 22 0 28 -3 20 -9 -11 -7 -11 -9 2 -14 9 -4 16 -2 16 3
0 6 7 10 16 10 8 0 13 -4 10 -9 -4 -5 7 -12 24 -16 16 -4 30 -10 30 -15 0 -8
162 -91 168 -86 7 8 -19 54 -44 80 -45 44 -110 86 -120 76 -9 -8 -97 9 -109
22 -4 3 21 4 54 1 46 -4 61 -3 61 7 0 9 6 8 20 -5 11 -10 31 -19 45 -21 29 -3
55 -21 55 -38 0 -6 14 -23 30 -38 17 -14 30 -35 30 -45 0 -11 9 -29 20 -41 11
-11 17 -27 14 -35 -3 -8 -1 -18 5 -21 12 -8 26 38 16 54 -4 6 -1 18 6 26 10
12 10 22 0 50 -7 18 -9 39 -5 45 4 8 3 9 -4 5 -8 -4 -16 3 -22 18 -5 14 -14
26 -19 26 -15 0 -22 32 -10 46 8 10 4 27 -15 70 -14 31 -26 74 -26 95 0 53
-54 113 -119 133 -88 27 -201 100 -201 130 0 7 3 6 8 -1 4 -6 39 -33 77 -59
58 -40 78 -48 117 -48 25 -1 44 -3 42 -5 -4 -4 27 -30 37 -31 4 0 -7 28 -24
62 -32 63 -85 122 -149 165 -20 13 -56 52 -80 85 -23 34 -51 68 -60 76 -32 29
-188 71 -268 72 -41 1 -100 6 -130 10 -41 7 -22 8 70 5 l124 -4 -31 19 c-31
19 -62 60 -45 60 5 0 19 -11 31 -24 13 -13 44 -33 70 -45 56 -24 180 -56 187
-48 3 3 -2 19 -10 36 -21 40 -20 48 3 27 19 -18 19 -17 5 31 -8 26 -24 68 -37
93 -22 44 -24 46 -125 79 -57 18 -101 35 -99 37 1 2 44 -7 95 -20 51 -13 92
-21 92 -19 0 17 -54 232 -64 257 -7 17 -52 68 -99 113 -48 45 -82 83 -77 85 6
2 -11 34 -37 71 -27 37 -64 92 -83 123 -26 41 -47 61 -85 80 -27 13 -39 22
-26 18 68 -18 90 -35 127 -96 63 -104 125 -186 209 -277 90 -96 94 -102 130
-251 15 -58 44 -145 65 -195 21 -49 46 -112 55 -138 10 -26 21 -50 26 -52 8
-6 42 79 60 150 17 67 8 245 -14 278 -21 32 -8 36 19 6 16 -17 20 -40 22 -133
4 -118 -13 -205 -59 -300 -24 -51 -24 -71 5 -126 16 -32 29 -45 45 -46 24 -1
36 -10 36 -27 0 -7 15 -19 33 -28 19 -8 33 -20 33 -25 -1 -5 9 -10 22 -12 20
-3 23 -8 20 -30 -3 -23 -2 -24 6 -7 5 11 10 34 10 50 1 17 5 37 11 45 17 27
23 0 11 -56 -8 -42 -8 -61 0 -71 9 -10 8 -17 -1 -29 -8 -8 -9 -14 -4 -13 21 4
34 -2 34 -16 0 -8 -5 -15 -11 -15 -5 0 -7 -5 -4 -10 4 -6 10 -8 15 -5 15 9 29
-22 36 -81 8 -72 22 -103 36 -83 6 10 7 7 3 -10 -5 -17 -4 -22 6 -19 8 3 15
14 17 26 3 17 -1 20 -17 17 -22 -4 -25 3 -15 29 5 12 10 13 25 5 15 -7 21 -6
25 6 3 8 4 22 1 30 -4 8 -2 17 4 21 10 6 10 74 1 102 -2 6 -11 12 -19 12 -9 0
-13 6 -9 15 5 14 -9 55 -35 108 -5 9 -30 70 -55 135 -46 115 -46 118 -45 231
1 104 -1 118 -24 159 -28 50 -7 38 26 -15 19 -30 21 -45 17 -126 -4 -78 -1
-103 19 -166 13 -41 30 -86 37 -100 7 -14 23 -47 36 -73 12 -27 27 -48 32 -48
4 0 2 10 -6 23 -15 22 -76 182 -76 195 1 14 32 -34 52 -80 11 -27 23 -48 27
-48 3 0 7 28 9 63 1 34 4 73 6 87 17 93 26 180 21 208 -5 25 -2 32 10 32 16 0
19 28 8 93 -4 26 -9 34 -14 25 -6 -8 -9 3 -9 30 0 30 -13 68 -43 130 -52 103
-80 177 -97 252 -7 30 -46 122 -88 203 -86 169 -133 221 -244 274 -67 32 -98
56 -98 76 0 7 8 2 18 -10 9 -12 53 -40 97 -62 44 -22 89 -48 100 -59 48 -46
95 -102 95 -114 0 -7 16 14 35 47 27 47 34 71 35 112 0 28 -4 55 -10 58 -5 3
-10 11 -10 18 0 6 8 4 18 -6 30 -31 22 -111 -19 -184 -27 -50 -32 -66 -23 -80
50 -81 135 -270 148 -331 9 -40 24 -91 33 -115 19 -49 77 -133 98 -140 20 -8
68 97 96 211 22 90 22 91 5 196 -16 99 -16 112 0 204 13 83 14 114 5 182 -9
71 -20 242 -23 385 -1 42 20 131 28 122 3 -3 0 -23 -6 -46z m-1865 -30 c3 -5
2 -12 -3 -15 -5 -3 -9 1 -9 9 0 17 3 19 12 6z m-71 -27 c5 -14 4 -15 -9 -4
-17 14 -19 20 -6 20 5 0 12 -7 15 -16z m37 3 c-7 -7 -14 -8 -21 -1 -6 6 -2 10
12 11 16 2 18 -1 9 -10z m-54 -39 c-3 -8 -6 -5 -6 6 -1 11 2 17 5 13 3 -3 4
-12 1 -19z m47 6 c3 -8 2 -12 -4 -9 -6 3 -10 10 -10 16 0 14 7 11 14 -7z m-21
-37 c6 -16 -3 -31 -19 -34 -6 -1 -11 9 -11 22 0 26 21 34 30 12z m2672 -114
c-9 -15 -13 -19 -10 -8 4 11 10 29 13 40 3 11 7 14 9 8 3 -7 -3 -24 -12 -40z
m-2755 -54 c0 -4 -5 -11 -11 -15 -8 -4 -8 -9 0 -17 6 -6 11 -15 11 -20 0 -5
-6 -2 -13 5 -17 17 -17 55 0 55 7 0 13 -4 13 -8z m-10 -84 c0 -5 -5 -3 -10 5
-5 8 -10 20 -10 25 0 6 5 3 10 -5 5 -8 10 -19 10 -25z m-23 -67 c-3 -8 -6 -5
-6 6 -1 11 2 17 5 13 3 -3 4 -12 1 -19z m-30 -110 c-3 -8 -6 -5 -6 6 -1 11 2
17 5 13 3 -3 4 -12 1 -19z m2786 -19 c-10 -17 -24 -36 -32 -42 -12 -10 -13 -9
-6 3 14 24 48 70 52 70 2 0 -4 -14 -14 -31z m-2796 -15 c2 -13 1 -15 -4 -4 -3
8 -11 19 -17 23 -7 6 -6 7 4 4 8 -2 16 -12 17 -23z m-13 -20 c3 -9 6 -27 6
-42 0 -25 -1 -25 -15 -6 -18 24 -19 38 -2 28 10 -6 10 -4 0 7 -7 7 -13 17 -13
21 0 14 18 8 24 -8z m856 -66 c10 -6 7 -7 -10 -2 -14 3 -32 11 -40 16 -10 6
-7 7 10 2 14 -3 32 -11 40 -16z m117 0 c-3 -8 -6 -5 -6 6 -1 11 2 17 5 13 3
-3 4 -12 1 -19z m-981 -63 c-4 -10 -19 -14 -48 -13 l-43 1 43 4 c35 4 42 8 43
26 0 12 3 16 6 9 3 -7 2 -19 -1 -27z m-483 -30 c-3 -9 -8 -14 -10 -11 -3 3 -2
9 2 15 9 16 15 13 8 -4z m179 8 c-6 -2 -10 -9 -6 -14 3 -5 -2 -9 -11 -9 -9 0
-14 4 -11 9 4 5 -3 7 -14 4 -11 -3 -17 -10 -14 -17 3 -6 -2 -2 -10 8 -9 11
-16 14 -16 8 0 -16 -25 -15 -38 1 -8 9 5 12 61 14 40 1 66 -1 59 -4z m136 0
c-10 -2 -26 -2 -35 0 -10 3 -2 5 17 5 19 0 27 -2 18 -5z m2409 -15 c-3 -8 -6
-5 -6 6 -1 11 2 17 5 13 3 -3 4 -12 1 -19z m658 -8 c-9 -16 -18 -30 -21 -30
-2 0 2 14 11 30 9 17 18 30 21 30 2 0 -2 -13 -11 -30z m-3142 13 c-7 -2 -19
-2 -25 0 -7 3 -2 5 12 5 14 0 19 -2 13 -5z m-156 -29 c-3 -3 -12 -4 -19 -1 -8
3 -5 6 6 6 11 1 17 -2 13 -5z m-227 -54 c-12 -8 -12 -10 -1 -10 8 0 12 -3 8
-6 -9 -9 -28 6 -22 17 4 5 12 9 18 9 7 0 6 -4 -3 -10z m-90 -54 c0 -2 -7 -7
-16 -10 -8 -3 -12 -2 -9 4 6 10 25 14 25 6z m-70 -22 c0 -2 -7 -4 -15 -4 -8 0
-15 4 -15 10 0 5 7 7 15 4 8 -4 15 -8 15 -10z m-86 -61 c-10 -7 -25 -12 -33
-12 -12 1 -12 2 2 6 9 2 15 8 13 12 -3 4 4 7 15 7 19 0 19 -1 3 -13z m-68 -26
c3 -22 -8 -28 -26 -16 -12 7 -12 9 -1 9 10 0 11 3 2 14 -10 12 -9 14 5 12 10
-2 18 -10 20 -19z m-26 -31 c0 -2 -8 -10 -17 -17 -16 -13 -17 -12 -4 4 13 16
21 21 21 13z m-153 -48 c-3 -8 -6 -5 -6 6 -1 11 2 17 5 13 3 -3 4 -12 1 -19z
m113 17 c0 -1 -15 -12 -32 -25 -32 -23 -32 -23 -14 -1 17 18 17 21 3 15 -10
-3 -17 -1 -17 5 0 6 13 10 30 9 17 -1 30 -3 30 -3z m-80 -58 c0 -2 -11 -14
-25 -27 -14 -13 -25 -21 -25 -17 0 3 10 15 22 27 21 19 28 24 28 17z m-80 -45
c0 -4 -11 -7 -25 -7 -22 0 -23 1 -9 12 16 12 34 9 34 -5z m-55 -82 c-41 -41
-62 -57 -70 -49 -10 10 12 32 26 23 4 -2 12 2 17 9 8 10 6 16 -10 26 -18 11
-20 11 -15 -3 4 -9 2 -16 -3 -16 -6 0 -10 2 -10 4 0 2 -3 11 -6 19 -4 12 3 15
30 15 20 0 36 -4 36 -10 0 -5 5 -6 10 -3 6 4 7 11 4 17 -4 6 -2 8 3 5 6 -4 16
0 23 8 7 8 15 15 18 15 4 0 -20 -27 -53 -60z m4101 15 c-43 -39 -76 -49 -36
-12 25 23 60 46 70 46 3 0 -13 -15 -34 -34z m-4192 -85 c-6 -6 -15 -5 -24 1
-13 9 -12 10 3 5 9 -3 17 0 17 6 0 6 3 8 7 5 4 -4 2 -12 -3 -17z m6 -24 c0 -2
-8 -10 -17 -17 -16 -13 -17 -12 -4 4 13 16 21 21 21 13z m-43 -42 c-3 -3 -12
-4 -19 -1 -8 3 -5 6 6 6 11 1 17 -2 13 -5z m-7 -18 c0 -2 -7 -9 -15 -16 -13
-11 -14 -10 -9 4 5 14 24 23 24 12z m3229 -98 c0 -33 -2 -38 -9 -23 -12 28
-12 65 0 65 6 0 10 -19 9 -42z m178 20 c-3 -8 -6 -5 -6 6 -1 11 2 17 5 13 3
-3 4 -12 1 -19z m-3483 -6 c3 -5 -1 -9 -9 -9 -8 0 -12 4 -9 9 3 4 7 8 9 8 2 0
6 -4 9 -8z m3269 -72 c3 -11 1 -18 -4 -14 -5 3 -9 12 -9 20 0 20 7 17 13 -6z
m792 -10 c-3 -5 -12 -10 -18 -10 -7 0 -6 4 3 10 19 12 23 12 15 0z m-58 -26
c-3 -3 -12 -4 -19 -1 -8 3 -5 6 6 6 11 1 17 -2 13 -5z m754 -67 c-10 -9 -11
-8 -5 6 3 10 9 15 12 12 3 -3 0 -11 -7 -18z m-2995 -15 c21 -16 46 -37 54 -47
14 -17 15 -16 21 6 5 18 7 14 8 -19 1 -38 8 -50 54 -99 28 -31 43 -51 31 -45
-29 15 -92 86 -110 125 -9 18 -38 49 -66 70 -28 20 -46 37 -41 37 6 0 28 -13
49 -28z m2975 -29 c-12 -20 -14 -14 -5 12 4 9 9 14 11 11 3 -2 0 -13 -6 -23z
m-410 -20 c-5 -10 -28 -36 -50 -58 -47 -45 -54 -64 -14 -38 15 10 24 12 19 5
-4 -7 -24 -21 -44 -31 -43 -22 -91 -90 -122 -175 -28 -74 -35 -68 -11 10 25
84 33 95 133 205 88 98 108 115 89 82z m-2672 -29 c9 -8 -75 -2 -94 6 -12 5 1
6 35 3 30 -3 57 -7 59 -9z m2671 -13 c-11 -21 -30 -37 -30 -25 0 8 30 44 37
44 2 0 -1 -9 -7 -19z m-2568 -21 c34 -16 58 -30 52 -30 -14 0 -68 24 -104 45
-42 24 -16 17 52 -15z m-1982 -74 c0 -11 -19 -15 -25 -6 -3 5 1 10 9 10 9 0
16 -2 16 -4z m4051 -112 c-22 -54 -45 -100 -50 -102 -6 -2 -11 -11 -11 -21 0
-9 -7 -26 -16 -37 -15 -18 -15 -18 -5 3 6 12 9 28 6 35 -3 7 6 29 20 48 14 19
25 37 25 42 0 16 64 150 67 141 2 -6 -14 -55 -36 -109z m-4037 88 c3 -5 -1 -9
-9 -9 -8 0 -12 4 -9 9 3 4 7 8 9 8 2 0 6 -4 9 -8z m1101 -42 c13 -6 15 -9 5
-9 -8 0 -22 4 -30 9 -18 12 -2 12 25 0z m2006 -27 c13 -16 12 -17 -3 -4 -10 7
-18 15 -18 17 0 8 8 3 21 -13z m-3132 -27 c-3 -3 -11 5 -18 17 -13 21 -12 21
5 5 10 -10 16 -20 13 -22z m3553 1 c2 -12 2 -45 -2 -72 l-6 -50 -7 55 c-4 30
-7 63 -7 73 0 25 17 21 22 -6z m-158 -77 c7 -24 6 -24 -8 -6 -9 11 -16 27 -16
35 0 21 16 2 24 -29z m126 -7 c0 -22 -2 -25 -10 -13 -13 20 -13 40 0 40 6 0
10 -12 10 -27z m-591 -15 c31 -18 77 -51 102 -75 41 -38 53 -44 109 -50 54 -5
70 -12 114 -48 34 -27 60 -60 78 -97 14 -30 39 -65 54 -77 15 -12 24 -24 21
-28 -4 -3 -15 1 -24 10 -10 8 -25 17 -33 19 -8 2 -22 25 -32 52 -36 101 -95
148 -202 161 -51 7 -65 13 -95 45 -20 21 -64 54 -98 74 -59 35 -72 46 -57 46
4 0 32 -14 63 -32z m968 -30 c-3 -8 -6 -5 -6 6 -1 11 2 17 5 13 3 -3 4 -12 1
-19z m214 -36 c-58 -45 -93 -85 -112 -127 -22 -51 -25 -20 -2 36 12 32 30 50
77 80 71 45 86 49 37 11z m-561 -22 c0 -5 -5 -10 -11 -10 -5 0 -7 5 -4 10 3 6
8 10 11 10 2 0 4 -4 4 -10z m326 -16 c-4 -9 -9 -15 -11 -12 -3 3 -3 13 1 22 4
9 9 15 11 12 3 -3 3 -13 -1 -22z m-2316 -10 c-35 -7 -98 -9 -94 -2 3 5 29 7
57 7 29 -1 45 -3 37 -5z m47 -10 c-3 -3 -12 -4 -19 -1 -8 3 -5 6 6 6 11 1 17
-2 13 -5z m1854 -52 c-9 -25 -9 -24 -10 18 0 36 2 41 10 27 7 -12 7 -27 0 -45z
m2814 13 c-62 -17 -69 -17 -30 0 17 8 41 14 55 14 15 0 5 -6 -25 -14z m812
-17 c-3 -7 -5 -2 -5 12 0 14 2 19 5 13 2 -7 2 -19 0 -25z m-3202 -36 c-3 -8
-5 -20 -5 -28 0 -8 -3 -14 -8 -14 -4 0 -7 20 -7 45 0 39 2 43 13 28 7 -10 10
-24 7 -31z m-740 -63 c5 -5 -5 -4 -23 2 -17 6 -32 13 -32 16 0 7 43 -8 55 -18z
m3962 -66 c-2 -16 -4 -3 -4 27 0 30 2 43 4 28 2 -16 2 -40 0 -55z m-4344 20
c-7 -2 -21 -2 -30 0 -10 3 -4 5 12 5 17 0 24 -2 18 -5z m77 -23 c8 -5 12 -12
8 -15 -9 -9 -48 4 -48 16 0 12 21 11 40 -1z m-475 -20 c3 -6 -1 -7 -9 -4 -18
7 -21 14 -7 14 6 0 13 -4 16 -10z m4752 -167 c-2 -27 -3 -5 -3 47 0 52 1 74 3
48 2 -27 2 -69 0 -95z m-5077 69 c-43 -26 -51 -27 -170 -27 -109 0 -131 -3
-174 -23 -27 -12 -51 -20 -54 -17 -8 8 99 52 143 59 23 4 71 2 109 -4 63 -10
71 -9 119 14 70 33 82 32 27 -2z m-420 -82 c-8 -5 -19 -10 -25 -10 -5 0 -3 5
5 10 8 5 20 10 25 10 6 0 3 -5 -5 -10z m2835 -39 c3 -5 29 -17 58 -27 65 -21
77 -31 134 -118 66 -102 90 -125 152 -143 55 -16 115 -63 140 -110 20 -38 12
-49 -10 -13 -25 41 -83 97 -107 104 -9 2 -29 7 -44 10 -35 8 -109 83 -147 150
-39 67 -41 69 -148 116 -62 28 -80 40 -61 40 15 0 29 -4 33 -9z m2652 -88 c-2
-16 -4 -5 -4 22 0 28 2 40 4 28 2 -13 2 -35 0 -50z m-944 -30 c-7 -2 -19 -2
-25 0 -7 3 -2 5 12 5 14 0 19 -2 13 -5z m-74 -18 c-20 -7 -50 -20 -68 -30 -37
-19 -216 -56 -264 -54 -18 1 19 10 81 21 63 10 146 32 185 48 40 16 79 29 87
29 8 0 -1 -6 -21 -14z m1008 -32 c-3 -10 -5 -4 -5 12 0 17 2 24 5 18 2 -7 2
-21 0 -30z m-10 -60 c-3 -10 -5 -4 -5 12 0 17 2 24 5 18 2 -7 2 -21 0 -30z
m-5301 -180 c-8 -16 -22 -37 -31 -48 -16 -19 -17 -19 -3 5 8 14 20 35 27 48 6
12 14 22 17 22 2 0 -2 -12 -10 -27z m3223 -9 c14 -12 -19 -1 -35 12 -18 14
-18 14 6 3 14 -6 27 -13 29 -15z m88 -30 c-3 -3 -12 -4 -19 -1 -8 3 -5 6 6 6
11 1 17 -2 13 -5z m46 -11 c-7 -2 -19 -2 -25 0 -7 3 -2 5 12 5 14 0 19 -2 13
-5z m-2673 -67 c0 -2 -7 -7 -16 -10 -8 -3 -12 -2 -9 4 6 10 25 14 25 6z m137
-18 c-3 -8 -6 -5 -6 6 -1 11 2 17 5 13 3 -3 4 -12 1 -19z m-2293 -35 c9 -18
14 -33 12 -33 -6 0 -36 55 -36 66 0 11 5 3 24 -33z m1396 23 c0 -2 -8 -10 -17
-17 -16 -13 -17 -12 -4 4 13 16 21 21 21 13z m-1321 -154 c27 -45 45 -80 41
-77 -10 6 -100 152 -100 162 0 11 9 -1 59 -85z m6747 9 c-20 -39 -38 -71 -41
-71 -3 0 12 34 32 75 20 41 39 73 41 71 2 -2 -13 -36 -32 -75z m-6650 -148
c21 -27 28 -39 15 -28 -24 21 -66 75 -58 75 3 0 22 -21 43 -47z m6573 10 c-12
-21 -27 -42 -32 -48 -11 -11 9 29 31 63 24 37 25 25 1 -15z m-39 -67 c0 -2 -8
-10 -17 -17 -16 -13 -17 -12 -4 4 13 16 21 21 21 13z m-6730 -46 c12 -16 19
-30 16 -30 -2 0 -14 14 -26 30 -12 17 -19 30 -16 30 2 0 14 -13 26 -30z m6680
-23 c0 -2 -10 -12 -22 -23 l-23 -19 19 23 c18 21 26 27 26 19z m-6619 -54 c13
-16 12 -17 -3 -4 -10 7 -18 15 -18 17 0 8 8 3 21 -13z m6579 4 c0 -2 -12 -14
-27 -28 l-28 -24 24 28 c23 25 31 32 31 24z m-71 -83 c-13 -14 -60 -58 -104
-96 -69 -61 -66 -57 20 25 97 93 134 124 84 71z m-3062 -124 c11 -25 34 -69
51 -97 18 -29 28 -53 24 -53 -18 0 -131 211 -132 246 0 39 14 35 25 -8 7 -24
21 -63 32 -88z m2873 -44 c0 -2 -8 -10 -17 -17 -16 -13 -17 -12 -4 4 13 16 21
21 21 13z m-6009 -43 c13 -16 12 -17 -3 -4 -10 7 -18 15 -18 17 0 8 8 3 21
-13z m5939 -13 c-32 -26 -102 -71 -89 -57 9 10 114 86 119 86 3 0 -11 -13 -30
-29z m-130 -85 c0 -2 -10 -9 -22 -15 -22 -11 -22 -10 -4 4 21 17 26 19 26 11z
m-5585 -35 c3 -6 -1 -7 -9 -4 -18 7 -21 14 -7 14 6 0 13 -4 16 -10z m5375 -70
c-8 -5 -19 -10 -25 -10 -5 0 -3 5 5 10 8 5 20 10 25 10 6 0 3 -5 -5 -10z
m-5170 -20 c8 -5 11 -10 5 -10 -5 0 -17 5 -25 10 -8 5 -10 10 -5 10 6 0 17 -5
25 -10z m5120 0 c-8 -5 -19 -10 -25 -10 -5 0 -3 5 5 10 8 5 20 10 25 10 6 0 3
-5 -5 -10z m-5030 -30 c18 -12 2 -12 -25 0 -13 6 -15 9 -5 9 8 0 22 -4 30 -9z
m47 -16 c-3 -3 -12 -4 -19 -1 -8 3 -5 6 6 6 11 1 17 -2 13 -5z m50 -10 c-3 -3
-12 -4 -19 -1 -8 3 -5 6 6 6 11 1 17 -2 13 -5z m40 -10 c-3 -3 -12 -4 -19 -1
-8 3 -5 6 6 6 11 1 17 -2 13 -5z m46 -11 c-7 -2 -19 -2 -25 0 -7 3 -2 5 12 5
14 0 19 -2 13 -5z m4574 1 c-3 -3 -12 -4 -19 -1 -8 3 -5 6 6 6 11 1 17 -2 13
-5z m-4514 -11 c-7 -2 -21 -2 -30 0 -10 3 -4 5 12 5 17 0 24 -2 18 -5z m4455
0 c-10 -2 -26 -2 -35 0 -10 3 -2 5 17 5 19 0 27 -2 18 -5z m-4350 -10 c-10 -2
-28 -2 -40 0 -13 2 -5 4 17 4 22 1 32 -1 23 -4z m4265 0 c-13 -2 -33 -2 -45 0
-13 2 -3 4 22 4 25 0 35 -2 23 -4z m-1145 -10 c-564 -2 -1491 -2 -2060 0 -568
1 -106 2 1027 2 1133 0 1598 -1 1033 -2z m-2851 -789 c-3 -3 -12 -4 -19 -1 -8
3 -5 6 6 6 11 1 17 -2 13 -5z m1606 -1 c-7 -2 -19 -2 -25 0 -7 3 -2 5 12 5 14
0 19 -2 13 -5z m-2162 -88 c-1 -82 -9 -79 -13 4 -2 39 1 66 6 62 4 -5 8 -35 7
-66z m717 39 c-3 -14 -5 -12 -10 9 -3 19 -2 25 4 19 6 -6 8 -18 6 -28z m1372
32 c0 -9 -30 -14 -35 -6 -4 6 3 10 14 10 12 0 21 -2 21 -4z m897 -2 c-3 -3
-12 -4 -19 -1 -8 3 -5 6 6 6 11 1 17 -2 13 -5z m70 -10 c-3 -3 -12 -4 -19 -1
-8 3 -5 6 6 6 11 1 17 -2 13 -5z m-1375 -522 c-3 -557 -6 -585 -64 -694 -78
-147 -235 -225 -498 -248 -304 -27 -554 55 -649 214 -70 118 -72 131 -78 714
l-6 522 152 0 151 0 0 -483 c0 -426 2 -489 17 -533 21 -63 95 -136 159 -158
106 -36 300 -29 382 13 46 24 83 63 113 121 l24 45 2 500 c2 275 3 500 3 500
0 0 66 -1 147 -3 l148 -3 -3 -507z m3839 325 c64 -161 205 -504 406 -987 36
-85 74 -176 84 -202 l19 -48 -158 0 -157 1 -44 112 c-25 62 -55 136 -68 165
l-23 52 -312 -2 -311 -3 -66 -162 -65 -163 -154 0 c-120 0 -153 3 -149 13 7
16 552 1378 559 1397 5 13 33 15 186 12 l180 -3 73 -182z m-6196 -274 c168
-252 314 -469 325 -483 19 -25 20 -23 20 458 l0 482 150 0 151 0 -1 -710 -1
-710 -167 1 -167 0 -120 182 c-123 187 -355 542 -473 726 l-67 105 -3 -507 -2
-507 -140 0 -140 0 0 33 c0 17 -3 337 -7 710 l-6 677 171 0 171 0 306 -457z
m1042 300 c-2 -32 -3 -8 -3 52 0 61 1 87 3 58 2 -29 2 -78 0 -110z m2678 146
c69 -13 159 -56 210 -100 19 -17 49 -61 67 -98 29 -58 32 -76 32 -151 1 -138
-46 -217 -158 -275 -28 -14 -59 -25 -70 -24 -14 0 -7 7 22 19 116 52 160 104
182 216 13 65 0 167 -22 180 -8 5 -9 1 -4 -12 5 -10 10 -37 14 -58 5 -37 4
-39 -18 -33 -13 3 -44 -4 -77 -19 -61 -26 -109 -32 -97 -11 4 6 -2 4 -13 -5
-21 -19 -34 -23 -32 -10 3 17 -14 72 -26 82 -10 8 -9 0 2 -32 19 -54 10 -131
-20 -176 -24 -36 -72 -65 -126 -77 -43 -9 -515 -10 -530 -1 -7 5 -12 64 -13
179 -2 136 -3 148 -5 59 -2 -68 -7 -110 -13 -107 -6 3 -7 -1 -4 -10 6 -14 -5
-15 -99 -11 l-106 6 -4 -38 c-2 -20 -5 24 -7 98 -4 131 -4 129 -10 -75 -3
-115 -7 -369 -8 -562 l-2 -353 417 0 c477 0 575 9 680 60 77 38 144 111 174
188 32 83 32 217 0 289 -37 84 -126 152 -219 168 -23 4 -40 11 -37 16 8 11 58
2 122 -23 67 -26 124 -87 153 -164 31 -83 26 -224 -12 -305 -49 -107 -130
-174 -257 -212 -61 -19 -100 -21 -551 -24 l-485 -4 -2 710 -3 711 448 0 c280
0 470 -4 507 -11z m1083 -576 c-1 -324 -4 -643 -6 -710 l-3 -122 -145 -3 -144
-3 0 713 0 712 150 0 150 0 -2 -587z m-5471 515 c-2 -13 -4 -3 -4 22 0 25 2
35 4 23 2 -13 2 -33 0 -45z m5130 30 c-3 -7 -5 -2 -5 12 0 14 2 19 5 13 2 -7
2 -19 0 -25z m375 -145 c-4 -273 -8 -292 -10 -45 -1 122 1 222 6 222 4 0 6
-80 4 -177z m-2092 5 c0 -83 -3 -149 -6 -145 -3 3 -6 38 -5 76 0 41 -3 71 -9
71 -6 0 -10 5 -10 11 0 5 5 7 10 4 6 -3 10 1 10 9 0 9 -4 16 -10 16 -5 0 -10
7 -10 15 0 8 5 15 12 15 9 0 9 3 0 12 -15 15 -16 31 -1 22 8 -5 10 1 7 20 -3
14 -1 26 3 26 5 0 9 -68 9 -152z m1720 112 c0 -5 -2 -10 -4 -10 -3 0 -8 5 -11
10 -3 6 -1 10 4 10 6 0 11 -4 11 -10z m-4164 -36 c3 -16 2 -26 -1 -23 -3 4 -8
19 -11 35 -3 16 -2 26 1 23 3 -4 8 -19 11 -35z m1713 -38 c-9 -8 -10 -7 -5 7
3 10 7 31 8 45 1 22 2 21 5 -7 3 -19 -1 -38 -8 -45z m688 59 c0 -8 -4 -12 -9
-9 -5 3 -6 10 -3 15 9 13 12 11 12 -6z m1258 3 c4 -3 2 -9 -3 -12 -5 -3 -15 1
-21 8 -10 11 -9 14 3 12 9 -1 18 -5 21 -8z m1702 -3 c0 -8 -4 -12 -9 -9 -5 3
-6 10 -3 15 9 13 12 11 12 -6z m-6327 -25 c0 -5 -2 -10 -4 -10 -3 0 -8 5 -11
10 -3 6 -1 10 4 10 6 0 11 -4 11 -10z m1690 -5 c0 -8 -4 -15 -10 -15 -5 0 -7
7 -4 15 4 8 8 15 10 15 2 0 4 -7 4 -15z m4663 0 c-3 -9 -8 -14 -10 -11 -3 3
-2 9 2 15 9 16 15 13 8 -4z m-5861 -12 c-10 -4 -10 -8 0 -21 12 -15 11 -16 -4
-3 -19 14 -15 32 5 30 8 0 8 -2 -1 -6z m-495 -35 c-3 -7 -5 -2 -5 12 0 14 2
19 5 13 2 -7 2 -19 0 -25z m1340 -50 c-2 -13 -4 -3 -4 22 0 25 2 35 4 23 2
-13 2 -33 0 -45z m-1340 -50 c-2 -13 -4 -5 -4 17 -1 22 1 32 4 23 2 -10 2 -28
0 -40z m1710 -25 c-2 -16 -4 -5 -4 22 0 28 2 40 4 28 2 -13 2 -35 0 -50z
m4603 57 c0 -5 -5 -10 -11 -10 -5 0 -7 5 -4 10 3 6 8 10 11 10 2 0 4 -4 4 -10z
m-4603 -112 c-3 -8 -6 -5 -6 6 -1 11 2 17 5 13 3 -3 4 -12 1 -19z m4550 -14
c-3 -3 -12 -4 -19 -1 -8 3 -5 6 6 6 11 1 17 -2 13 -5z m-6260 -56 c-2 -13 -4
-5 -4 17 -1 22 1 32 4 23 2 -10 2 -28 0 -40z m4648 42 c3 -5 1 -10 -4 -10 -6
0 -11 5 -11 10 0 6 2 10 4 10 3 0 8 -4 11 -10z m485 -11 c0 -11 -4 -18 -10
-14 -5 3 -7 12 -3 20 7 21 13 19 13 -6z m-2436 -5 c3 -8 2 -12 -4 -9 -6 3 -10
10 -10 16 0 14 7 11 14 -7z m-987 -71 c-2 -16 -4 -5 -4 22 0 28 2 40 4 28 2
-13 2 -35 0 -50z m1700 0 c-2 -16 -4 -5 -4 22 0 28 2 40 4 28 2 -13 2 -35 0
-50z m1050 45 c-3 -8 -6 -5 -6 6 -1 11 2 17 5 13 3 -3 4 -12 1 -19z m-3770
-13 c0 -8 -4 -12 -9 -9 -5 3 -6 10 -3 15 9 13 12 11 12 -6z m280 -7 c-3 -8 -6
-5 -6 6 -1 11 2 17 5 13 3 -3 4 -12 1 -19z m0 -40 c-3 -8 -6 -5 -6 6 -1 11 2
17 5 13 3 -3 4 -12 1 -19z m4530 -25 c-3 -10 -5 -4 -5 12 0 17 2 24 5 18 2 -7
2 -21 0 -30z m693 17 c0 -5 -4 -10 -10 -10 -5 0 -10 5 -10 10 0 6 5 10 10 10
6 0 10 -4 10 -10z m-5843 -173 c-2 -23 -3 -1 -3 48 0 50 1 68 3 42 2 -26 2
-67 0 -90z m620 91 c-3 -8 -6 -5 -6 6 -1 11 2 17 5 13 3 -3 4 -12 1 -19z
m-970 -50 c-2 -13 -4 -3 -4 22 0 25 2 35 4 23 2 -13 2 -33 0 -45z m5500 40
c-3 -8 -6 -5 -6 6 -1 11 2 17 5 13 3 -3 4 -12 1 -19z m0 -80 c-3 -8 -6 -5 -6
6 -1 11 2 17 5 13 3 -3 4 -12 1 -19z m623 -14 c0 -8 -5 -12 -10 -9 -6 4 -8 11
-5 16 9 14 15 11 15 -7z m-6120 -19 c0 -14 -4 -25 -9 -25 -5 0 -8 8 -6 18 2 9
4 20 4 25 2 19 11 4 11 -18z m5505 5 c3 -5 1 -10 -4 -10 -6 0 -11 5 -11 10 0
6 2 10 4 10 3 0 8 -4 11 -10z m-1237 -110 c115 -16 168 -60 192 -159 17 -70
-7 -152 -58 -198 -62 -57 -102 -63 -408 -63 -239 0 -273 2 -278 16 -3 9 -6
103 -6 209 0 176 2 194 18 198 33 9 477 7 540 -3z m-1211 -172 c-3 -7 -5 -2
-5 12 0 14 2 19 5 13 2 -7 2 -19 0 -25z"/>
<path d="M5578 11573 c7 -3 16 -2 19 1 4 3 -2 6 -13 5 -11 0 -14 -3 -6 -6z"/>
<path d="M5618 11563 c7 -3 16 -2 19 1 4 3 -2 6 -13 5 -11 0 -14 -3 -6 -6z"/>
<path d="M3048 9773 c28 -2 76 -2 105 0 28 2 5 3 -53 3 -58 0 -81 -1 -52 -3z"/>
<path d="M2450 9610 c-8 -5 -10 -10 -5 -10 6 0 17 5 25 10 8 5 11 10 5 10 -5
0 -17 -5 -25 -10z"/>
<path d="M2350 9549 c-22 -18 -22 -19 -3 -10 12 6 25 16 28 21 9 15 3 12 -25
-11z"/>
<path d="M1932 9446 c-40 -41 -72 -76 -72 -80 0 -14 29 8 33 26 4 13 10 17 19
12 7 -4 10 -4 6 1 -4 4 6 21 23 37 26 26 32 28 47 17 15 -12 16 -12 5 2 -10
12 -9 20 3 37 26 38 10 24 -64 -52z"/>
<path d="M2128 9443 c7 -3 16 -2 19 1 4 3 -2 6 -13 5 -11 0 -14 -3 -6 -6z"/>
<path d="M5441 9324 c0 -11 3 -14 6 -6 3 7 2 16 -1 19 -3 4 -6 -2 -5 -13z"/>
<path d="M5070 8950 c0 -5 5 -10 10 -10 6 0 10 5 10 10 0 6 -4 10 -10 10 -5 0
-10 -4 -10 -10z"/>
<path d="M5817 8585 c-10 -14 -14 -25 -9 -25 10 0 42 33 42 43 0 14 -16 5 -33
-18z"/>
<path d="M5801 8485 c-33 -37 -31 -47 5 -17 18 14 40 52 30 52 -1 0 -17 -16
-35 -35z"/>
<path d="M4240 8451 c0 -6 4 -13 10 -16 6 -3 7 1 4 9 -7 18 -14 21 -14 7z"/>
<path d="M5510 8120 c-8 -5 -12 -11 -10 -14 3 -2 14 2 24 10 22 15 10 19 -14
4z"/>
<path d="M5525 8100 c-3 -5 -2 -10 4 -10 5 0 13 5 16 10 3 6 2 10 -4 10 -5 0
-13 -4 -16 -10z"/>
<path d="M4880 8056 c0 -3 9 -10 20 -16 11 -6 20 -8 20 -6 0 3 -9 10 -20 16
-11 6 -20 8 -20 6z"/>
<path d="M5225 7990 c3 -5 10 -10 16 -10 5 0 9 5 9 10 0 6 -7 10 -16 10 -8 0
-12 -4 -9 -10z"/>
<path d="M5092 7700 c0 -14 2 -19 5 -12 2 6 2 18 0 25 -3 6 -5 1 -5 -13z"/>
<path d="M4360 5332 c0 -102 -12 -151 -33 -133 -8 6 -18 7 -23 3 -5 -5 -32
-14 -61 -21 -75 -18 -106 -2 -114 59 -3 25 -7 -108 -10 -295 l-4 -340 -31 -66
c-34 -71 -68 -104 -150 -141 -44 -20 -64 -23 -184 -22 -116 0 -142 3 -182 22
-66 30 -132 93 -159 155 -24 51 -24 60 -29 427 -3 259 -7 355 -13 310 -4 -36
-11 -71 -15 -77 -6 -10 -112 -25 -179 -25 -14 0 -24 -7 -25 -17 -1 -9 -4 31
-7 89 -4 70 -9 -26 -14 -290 -8 -381 -8 -398 12 -474 46 -174 137 -263 326
-318 71 -20 101 -23 270 -22 166 0 201 3 275 23 161 43 253 113 314 236 48 99
53 160 48 600 -2 220 -6 402 -8 404 -2 2 -4 -37 -4 -87z"/>
<path d="M8167 5472 c3 -12 9 -25 14 -28 14 -8 11 10 -6 32 -13 18 -14 18 -8
-4z"/>
<path d="M8195 5403 c11 -40 7 -75 -10 -92 -9 -10 -15 -11 -15 -4 0 7 5 15 10
18 6 4 7 11 4 17 -5 7 -10 4 -15 -9 -11 -29 -64 -47 -83 -27 -9 9 -17 10 -21
4 -4 -6 -11 -7 -17 -4 -7 5 -9 0 -6 -14 4 -12 2 -20 -3 -16 -5 3 -9 14 -9 25
0 10 -4 19 -10 19 -14 0 -14 1 34 -123 98 -247 166 -439 166 -467 l0 -30 -239
0 c-139 0 -242 4 -246 9 -3 6 6 38 19 73 23 58 112 294 156 413 10 27 16 54
12 59 -3 6 -7 5 -10 -2 -2 -7 -8 -10 -12 -7 -5 3 -6 13 -3 22 4 11 3 14 -5 9
-7 -4 -12 -13 -12 -21 0 -14 -21 -26 -57 -32 -14 -2 -23 1 -23 9 0 9 -3 9 -12
0 -14 -14 -42 -16 -33 -2 3 5 0 7 -9 4 -8 -3 -17 -13 -19 -22 -3 -11 -5 -8 -6
8 -1 19 -3 22 -10 10 -6 -8 -8 -17 -6 -20 2 -4 -2 -7 -10 -7 -12 0 -11 6 2 36
8 20 17 45 20 56 4 17 3 17 -6 4 -7 -11 -374 -896 -458 -1107 -4 -10 25 -12
137 -10 l142 3 19 55 c37 105 103 255 118 268 18 15 575 18 613 3 24 -9 64
-93 131 -273 l21 -58 143 0 c79 0 143 2 143 4 0 5 -118 282 -160 376 -16 36
-58 135 -93 220 -36 85 -92 218 -124 295 -33 77 -79 188 -103 248 -40 102 -61
139 -45 80z"/>
<path d="M7939 5294 c-5 -15 -8 -29 -5 -31 2 -2 8 10 14 26 13 38 5 41 -9 5z"/>
<path d="M7967 5278 c-3 -13 -33 -90 -67 -173 -34 -82 -79 -195 -100 -250 -21
-55 -41 -108 -45 -117 -7 -17 8 -18 224 -18 256 0 244 -4 215 66 -9 22 -45
111 -79 199 -89 229 -126 315 -135 315 -4 0 -10 -10 -13 -22z m23 -78 c0 -5
-2 -10 -4 -10 -3 0 -8 5 -11 10 -3 6 -1 10 4 10 6 0 11 -4 11 -10z"/>
<path d="M2642 5283 c-2 -79 -3 -83 -24 -84 -13 -1 -27 -1 -32 0 -23 5 -88
-12 -102 -26 -12 -13 -20 -13 -40 -5 -22 11 -24 17 -26 89 -3 127 -15 -185
-17 -418 -1 -154 -4 -210 -14 -223 -13 -18 -15 -17 -34 10 -48 69 -122 177
-197 289 -43 66 -88 128 -98 139 -10 11 -18 23 -18 27 0 4 -7 10 -16 13 -13 5
-14 3 -6 -6 7 -9 6 -19 -4 -32 -8 -11 -14 -14 -14 -7 0 7 -8 11 -17 10 -10 -2
-28 3 -41 10 -13 7 -33 11 -45 10 -12 -2 -33 3 -46 10 -20 11 -23 11 -19 -1 4
-8 -1 -14 -12 -14 -10 0 -16 6 -13 13 3 9 0 11 -10 8 -8 -4 -17 1 -20 9 -4 9
-1 16 6 16 7 0 -3 9 -20 20 -30 18 -49 51 -20 34 6 -4 8 -3 4 1 -12 14 -38 15
-30 2 41 -71 297 -472 464 -726 63 -97 128 -197 143 -223 l28 -48 155 0 155 0
-4 543 c-1 298 -6 565 -9 592 -5 43 -6 39 -7 -32z m-602 -227 c0 -3 -4 -8 -10
-11 -5 -3 -10 -1 -10 4 0 6 5 11 10 11 6 0 10 -2 10 -4z"/>
<path d="M1950 5207 c0 -12 45 -77 53 -77 4 0 -4 17 -20 38 -15 20 -28 39 -30
41 -2 2 -3 1 -3 -2z"/>
<path d="M1649 5105 c-2 -61 -3 -65 -9 -30 -4 22 -8 30 -9 18 0 -13 -8 -23
-16 -23 -9 0 -15 9 -15 23 0 22 -1 22 -13 -3 -12 -23 -18 -25 -81 -23 -50 1
-66 -2 -63 -11 3 -7 2 -19 -3 -25 -5 -9 -8 -4 -9 13 -3 48 -4 55 -11 51 -4 -2
-8 -209 -9 -460 l-2 -455 131 0 131 0 -2 484 c-1 267 -6 491 -10 498 -5 8 -9
-15 -10 -57z"/>
<path d="M5528 5373 c7 -3 16 -2 19 1 4 3 -2 6 -13 5 -11 0 -14 -3 -6 -6z"/>
<path d="M5608 5363 c7 -3 16 -2 19 1 4 3 -2 6 -13 5 -11 0 -14 -3 -6 -6z"/>
<path d="M5640 5356 c0 -2 9 -6 20 -9 11 -3 18 -1 14 4 -5 9 -34 13 -34 5z"/>
<path d="M5100 5181 l0 -171 235 0 c270 0 322 8 374 55 34 31 36 37 39 107 4
69 2 76 -24 107 -51 61 -71 65 -361 69 l-263 4 0 -171z m104 123 c5 -14 4 -15
-9 -4 -17 14 -19 20 -6 20 5 0 12 -7 15 -16z m199 9 c-7 -2 -21 -2 -30 0 -10
3 -4 5 12 5 17 0 24 -2 18 -5z m302 -73 c-3 -5 -12 -10 -18 -10 -7 0 -6 4 3
10 19 12 23 12 15 0z m-10 -30 c-3 -5 0 -10 7 -11 10 0 10 -2 1 -6 -10 -3 -10
-10 -2 -26 10 -21 10 -21 -5 -3 -18 23 -21 56 -5 56 5 0 7 -4 4 -10z m32 -42
c-3 -8 -6 -5 -6 6 -1 11 2 17 5 13 3 -3 4 -12 1 -19z m-42 -66 c-3 -3 -11 0
-18 7 -9 10 -8 11 6 5 10 -3 15 -9 12 -12z m-68 -58 c-3 -3 -12 -4 -19 -1 -8
3 -5 6 6 6 11 1 17 -2 13 -5z"/>
<path d="M4905 5130 c-3 -5 1 -10 10 -10 9 0 13 5 10 10 -3 6 -8 10 -10 10 -2
0 -7 -4 -10 -10z"/>
<path d="M5018 5123 c7 -3 16 -2 19 1 4 3 -2 6 -13 5 -11 0 -14 -3 -6 -6z"/>
<path d="M6799 5290 c-3 -44 -8 -65 -17 -65 -7 0 -16 -4 -20 -10 -12 -18 -31
-15 -37 5 -7 21 -41 28 -47 10 -5 -16 -58 -23 -58 -8 0 9 -3 8 -10 -2 -5 -8
-10 -10 -10 -5 0 6 -5 3 -10 -5 -7 -11 -10 -4 -10 28 0 23 -4 42 -10 42 -7 0
-10 -190 -10 -550 l0 -550 130 0 130 0 -1 458 c-1 467 -11 781 -20 652z"/>
<path d="M5097 4595 l2 -196 268 1 c147 0 284 5 304 10 93 25 144 91 144 185
0 80 -27 132 -86 165 -44 25 -46 25 -339 28 l-295 3 2 -196z"/>
</g>
</svg>
