<?xml version="1.0" standalone="no"?>
<!DOCTYPE svg PUBLIC "-//W3C//DTD SVG 20010904//EN"
 "http://www.w3.org/TR/2001/REC-SVG-20010904/DTD/svg10.dtd">
<svg version="1.0" xmlns="http://www.w3.org/2000/svg"
 width="1587.000000pt" height="2245.000000pt" viewBox="0 0 1587.000000 2245.000000"
 preserveAspectRatio="xMidYMid meet">

<g transform="translate(0.000000,2245.000000) scale(0.100000,-0.100000)"
fill="#000000" stroke="none">
<path d="M0 11225 l0 -11225 7935 0 7935 0 0 11225 0 11225 -7935 0 -7935 0 0
-11225z m8005 6465 c234 -32 303 -42 330 -49 17 -5 66 -17 110 -26 44 -10 130
-33 190 -52 112 -35 122 -39 187 -67 20 -9 40 -16 45 -16 4 0 50 -20 101 -45
51 -25 94 -45 97 -45 9 0 201 -113 270 -158 183 -122 335 -245 475 -389 80
-81 164 -170 186 -198 40 -49 149 -202 169 -237 6 -9 29 -49 53 -87 125 -206
244 -473 299 -671 8 -30 19 -71 24 -90 24 -85 48 -208 65 -325 9 -66 18 -75
75 -75 116 0 491 -93 626 -155 17 -8 34 -15 38 -15 12 0 235 -110 278 -138 22
-13 60 -35 85 -49 46 -26 263 -178 311 -217 469 -391 780 -849 956 -1406 60
-193 78 -277 115 -555 13 -102 13 -434 0 -545 -30 -245 -57 -395 -90 -500 -5
-14 -16 -52 -25 -85 -9 -33 -21 -69 -25 -80 -4 -11 -15 -42 -25 -70 -32 -97
-128 -301 -206 -442 -163 -293 -434 -609 -705 -823 -77 -61 -109 -84 -179
-132 -44 -30 -87 -57 -95 -61 -8 -4 -28 -16 -45 -26 -63 -39 -151 -87 -185
-101 -19 -7 -68 -29 -108 -47 -39 -18 -75 -33 -78 -33 -3 0 -20 -7 -37 -14
-53 -25 -237 -82 -322 -100 -298 -65 -84 -61 -3105 -61 -2806 0 -2822 0 -2960
35 -19 5 -73 16 -120 26 -47 9 -103 22 -125 29 -22 7 -74 23 -115 35 -41 12
-94 31 -117 41 -24 11 -46 19 -49 19 -19 0 -262 120 -364 179 -471 274 -847
675 -1094 1165 -39 78 -77 157 -85 176 -7 19 -19 49 -26 65 -22 50 -72 205
-95 290 -133 499 -132 1002 3 1500 27 101 124 350 164 423 14 26 42 76 61 112
43 79 166 263 230 345 109 139 358 368 507 467 109 72 363 208 388 208 4 0 26
9 50 19 23 11 80 31 127 46 47 15 94 31 105 35 11 5 47 14 80 20 33 7 80 16
105 21 25 5 77 14 115 19 39 6 84 14 100 18 l30 8 7 175 c3 95 11 199 17 229
6 30 18 96 27 145 32 172 108 419 175 563 11 24 27 62 36 85 10 23 43 89 75
146 32 57 58 105 58 108 0 2 8 16 18 31 10 15 42 63 72 107 29 44 63 92 74
106 12 15 30 39 41 55 91 128 322 364 485 495 87 70 330 239 344 239 4 0 23
11 44 23 46 30 161 89 227 117 28 12 64 28 80 36 54 24 138 55 225 83 118 39
138 44 330 91 39 9 216 35 330 49 109 12 472 13 565 1z m-5387 -9632 c143
-193 183 -246 197 -262 6 -6 32 -40 58 -76 26 -36 58 -78 71 -95 12 -16 96
-129 186 -250 90 -121 184 -248 209 -282 25 -34 71 -96 101 -139 117 -164 201
-274 211 -274 5 0 9 291 9 770 l0 770 216 -2 215 -3 2 -1110 2 -1110 -245 0
-244 0 -38 50 c-21 28 -68 91 -104 140 -36 50 -109 150 -162 222 -53 73 -131
179 -172 235 -41 57 -78 108 -82 113 -4 6 -18 24 -31 40 -20 26 -107 145 -172
235 -11 15 -54 73 -95 129 -41 56 -92 125 -113 154 -21 28 -46 61 -55 73 -9
11 -21 27 -27 36 -42 64 -89 118 -96 111 -5 -5 -10 -353 -11 -773 l-3 -765
-220 0 -220 0 -3 1113 -2 1112 249 0 249 0 120 -162z m2652 -591 c0 -648 2
-761 16 -812 28 -110 81 -178 174 -225 53 -26 86 -36 200 -60 63 -13 385 -8
465 8 140 27 215 70 272 155 64 96 63 76 63 921 l0 766 230 0 230 0 0 -777 c0
-775 -5 -907 -35 -1000 -93 -278 -301 -425 -685 -485 -102 -16 -504 -21 -585
-8 -108 17 -227 41 -260 51 -140 42 -159 50 -245 105 -169 107 -249 242 -289
485 -7 44 -11 335 -11 848 l0 781 230 0 230 0 0 -753z m3712 742 c230 -34 395
-106 497 -214 99 -106 135 -206 135 -375 0 -121 -12 -176 -60 -270 -32 -63
-134 -158 -216 -199 -16 -8 -28 -17 -28 -21 0 -3 21 -12 46 -19 174 -51 299
-172 353 -341 6 -19 14 -73 18 -120 12 -179 -51 -350 -172 -464 -41 -38 -152
-104 -210 -124 -194 -67 -294 -74 -1085 -70 l-685 3 -5 1108 c-3 610 -3 1111
-1 1113 10 10 1344 3 1413 -7z m1818 -1104 l0 -1115 -232 2 -233 3 -3 1113 -2
1112 235 0 235 0 0 -1115z m2011 1095 c11 -19 52 -113 69 -160 7 -19 17 -39
22 -44 4 -6 8 -16 8 -22 0 -7 13 -41 29 -76 16 -35 39 -88 50 -118 12 -30 25
-64 30 -75 5 -11 18 -40 29 -65 11 -25 34 -81 52 -125 18 -44 38 -93 45 -110
7 -16 36 -86 65 -155 29 -69 58 -138 65 -155 8 -16 35 -82 60 -145 26 -63 53
-128 60 -145 25 -57 145 -354 145 -359 0 -3 11 -29 24 -58 50 -110 156 -371
156 -384 0 -12 -43 -14 -250 -14 l-249 0 -15 33 c-8 17 -36 86 -61 152 -26 66
-58 143 -70 170 -12 28 -26 61 -30 75 -4 14 -15 35 -23 48 l-14 22 -519 0
-519 0 -19 -42 c-10 -24 -31 -74 -46 -113 -15 -38 -34 -85 -42 -102 -7 -18
-20 -51 -28 -73 -8 -22 -21 -55 -28 -73 -8 -17 -20 -47 -27 -64 l-12 -33 -250
0 c-196 0 -249 3 -245 13 3 6 26 64 52 127 26 63 56 134 66 157 11 24 19 45
19 49 0 3 11 30 25 60 14 30 25 56 25 59 0 2 16 38 36 81 20 43 48 110 64 148
15 39 42 101 59 139 17 37 31 70 31 73 0 3 7 21 15 40 8 19 22 49 30 68 8 19
15 37 15 40 0 3 11 29 24 58 13 29 34 78 46 108 12 30 31 74 41 97 11 24 19
45 19 48 0 4 9 25 19 48 10 23 42 98 71 167 29 69 61 144 71 167 10 23 19 44
19 47 0 3 14 35 30 71 17 36 30 68 30 70 0 2 11 28 24 57 13 29 36 82 50 118
15 36 32 77 39 93 l12 27 299 -2 c253 -3 300 -5 307 -18z"/>
<path d="M8034 7817 c-2 -7 -3 -120 -2 -252 l3 -240 400 -3 c441 -3 484 0 590
49 37 18 84 68 101 107 21 52 18 153 -7 206 -33 72 -83 107 -184 131 -89 20
-893 23 -901 2z"/>
<path d="M8035 6927 c-3 -7 -4 -129 -3 -272 l3 -260 425 -3 c466 -3 563 4 645
44 102 52 134 105 135 227 0 92 -14 130 -66 182 -45 43 -85 63 -169 81 -85 19
-963 20 -970 1z"/>
<path d="M12480 7785 c0 -8 -4 -23 -10 -33 -5 -9 -30 -71 -56 -137 -26 -66
-54 -138 -64 -160 -9 -22 -23 -56 -29 -75 -18 -48 -27 -71 -39 -100 -6 -14
-30 -72 -52 -130 -23 -58 -52 -127 -65 -155 -12 -27 -25 -64 -29 -81 -6 -28
-4 -32 19 -38 33 -8 685 -6 706 2 15 6 12 19 -22 107 -22 55 -48 119 -59 142
-11 24 -20 46 -20 49 0 7 -26 69 -41 96 -5 10 -9 22 -9 28 0 9 -40 103 -61
142 -5 10 -9 22 -9 28 0 5 -11 33 -24 62 -13 29 -43 101 -67 161 -24 59 -49
107 -56 107 -7 0 -13 -7 -13 -15z"/>
</g>
</svg>
